<svg width="453" height="326" viewBox="0 0 453 326" fill="none" xmlns="http://www.w3.org/2000/svg">
<path d="M0.000124042 303.427L417.833 325.932C444.267 327.353 456.36 300.672 451.5 277.5L398.512 24.9953C394.458 5.63477 382.579 -1.68933 360.767 1.4764L0.0238885 53.8079L0.0238667 303.427L0.000124042 303.427Z" fill="#ECE1D2"/>
<path opacity="0.4" d="M118.006 98.4252C119.037 97.5904 120.166 96.9028 121.492 96.3135L125.47 93.9071C125.667 93.7598 125.863 93.6616 126.06 93.5634C131.364 90.5677 139.761 90.5186 150.222 94.0054L194.273 90.273C194.421 90.2239 194.568 90.1748 194.764 90.1748C197.809 88.5051 216.864 79.1251 217.699 78.8795C219.958 77.0625 224.279 76.7678 230.025 78.4867C230.467 78.634 230.86 78.7322 231.302 78.8795C232.53 78.2902 233.414 77.8973 233.512 77.8482C235.034 76.6205 237.981 76.4241 241.861 77.6027C249.423 79.8617 257.821 86.3442 260.571 92.1392C262.339 95.7733 261.455 98.2288 258.656 99.0146C258.607 99.0637 258.165 99.3092 257.527 99.653C257.576 99.8003 257.674 99.8985 257.723 100.046C260.326 105.399 259 109.033 254.924 110.212C254.433 110.604 242.008 116.792 235.476 119.935L235.133 120.476C236.311 122.293 236.95 124.503 236.851 126.811L236.704 130.248C236.409 136.289 231.253 141.003 225.212 140.758H224.918C223.837 140.709 222.855 140.512 221.873 140.169L211.56 155.442C212.002 161.58 209.694 166.049 205.274 168.456L199.97 171.501C199.577 171.746 199.135 171.992 198.693 172.237H198.644C192.554 175.282 182.683 174.693 170.553 169.782C145.949 159.862 121.198 136.043 115.206 116.596C112.505 108.149 113.782 101.961 118.006 98.4252Z" fill="#557178"/>
<path d="M166.379 165.018L174.187 160.598L123.85 65.8163L114.273 71.5131L166.379 165.018Z" fill="#E0465C"/>
<path d="M215.931 59.0392C216.471 58.6463 233.414 50.1503 234.052 49.9539C235.967 48.4806 238.865 48.3332 242.254 49.9047C248.834 52.9496 254.678 61.2491 255.317 68.4191C255.71 72.9372 253.991 75.9329 250.995 76.8169C250.455 77.2098 233.512 85.7058 232.874 85.9022C230.958 87.3755 228.061 87.5229 224.672 85.9513C218.092 82.9065 212.247 74.607 211.609 67.4369C211.216 62.9188 212.984 59.9231 215.931 59.0392Z" fill="#25222A"/>
<path d="M213.917 59.8741C214.457 59.4812 231.4 50.9852 232.039 50.7888C233.954 49.3155 236.851 49.1681 240.24 50.7397C246.821 53.7845 252.665 62.084 253.303 69.254C253.696 73.7721 251.977 76.7678 248.982 77.6518C248.441 78.0447 231.499 86.5407 230.86 86.7371C228.945 88.2104 226.047 88.3578 222.659 86.7862C216.078 83.7414 210.234 75.4419 209.596 68.2718C209.203 63.7046 210.922 60.7089 213.917 59.8741Z" fill="#273C41"/>
<path d="M230.025 77.6027C230.32 71.2184 225.36 65.8163 219.024 65.5217L216.176 65.3744C209.792 65.0797 204.39 70.0398 204.095 76.3749L201.885 125.534C201.59 131.918 206.55 137.32 212.886 137.615L215.734 137.762C222.118 138.057 227.52 133.097 227.815 126.762L230.025 77.6027Z" fill="#25222A"/>
<path d="M191.474 64.1466C192.259 63.5573 217.305 50.9852 218.288 50.6905C221.136 48.5297 225.458 48.2841 230.418 50.5923C240.141 55.0613 248.785 67.3388 249.718 77.9956C250.307 84.6745 247.753 89.1435 243.334 90.4204C242.548 91.0097 217.502 103.582 216.52 103.876C213.671 106.037 209.35 106.283 204.389 103.975C194.666 99.5057 186.022 87.2282 185.089 76.5714C184.5 69.8925 187.054 65.4235 191.474 64.1466Z" fill="#25222A"/>
<path d="M242.794 60.7089C245.74 65.2761 247.705 70.3835 248.147 75.1471C248.736 81.8261 246.182 86.2951 241.762 87.5719C240.976 88.1612 215.93 100.733 214.948 101.028C212.1 103.189 207.778 103.434 202.818 101.126C195.795 97.885 190.492 93.0231 187.103 85.1655L242.794 60.7089Z" fill="#273C41"/>
<path d="M191.425 63.9993L120.854 69.0576L170.651 161.875L223.395 98.9654C220.645 78.8795 207.042 59.7758 191.425 63.9993Z" fill="#ADBEC2"/>
<path d="M140.94 106.479L168.834 156.129C168.834 156.129 222.904 95.9698 222.56 94.4965C220.891 86.7862 217.649 79.4689 213.426 73.8704L140.94 106.479Z" fill="#719098"/>
<path d="M173.849 160.809C189.043 152.931 190.298 125.209 176.653 98.8904C163.007 72.5716 139.628 57.6222 124.434 65.4999C109.24 73.3776 107.984 101.099 121.63 127.418C135.275 153.737 158.655 168.687 173.849 160.809Z" fill="#25222A"/>
<path d="M166.628 164.929C181.822 157.051 183.078 129.329 169.432 103.01C155.786 76.6916 132.407 61.7421 117.213 69.6199C102.019 77.4976 100.764 105.219 114.409 131.538C128.055 157.857 151.434 172.807 166.628 164.929Z" fill="#273C41"/>
<path d="M167.663 159.19C181.749 151.887 182.916 126.192 170.27 101.8C157.623 77.4071 135.951 63.5537 121.865 70.8572C107.778 78.1606 106.611 103.855 119.258 128.248C131.905 152.64 153.576 166.494 167.663 159.19Z" fill="white"/>
<path d="M167.41 96.4117C160.388 84.7236 150.909 77.2589 146.637 74.5088C127.729 62.4278 111.572 70.7764 110.541 93.2196C110.246 99.653 110.492 106.872 116.238 121.801C124.292 96.5591 146.391 91.8445 167.41 96.4117Z" fill="#ADBEC2"/>
<path d="M176.004 121.065C176.446 111.292 169.571 99.1128 160.633 93.8089C156.361 91.2552 152.383 90.7641 149.338 92.041L149.191 92.0901C149.043 92.1392 148.945 92.1883 148.798 92.2865L137.65 97.4921C137.208 97.6395 136.766 97.8359 136.373 98.0815C133.623 99.653 131.855 102.894 131.658 107.461C131.216 117.234 138.092 129.414 147.03 134.717C151.253 137.222 155.133 137.713 158.178 136.534C158.521 136.387 158.816 136.24 159.16 136.092L169.424 131.231C170.308 130.985 171.143 130.592 171.879 130.052C174.286 128.382 175.808 125.337 176.004 121.065Z" fill="#719098"/>
<path d="M156.41 82.5137C156.263 82.5628 137.846 92.0901 137.846 92.0901C137.454 92.2375 137.061 92.4339 136.668 92.6795C134.114 94.3001 132.493 97.4922 132.248 102.059C131.806 111.832 138.141 124.012 146.342 129.266C150.222 131.722 153.807 132.262 156.606 131.083C156.901 130.936 157.196 130.789 157.49 130.641C157.49 130.641 176.447 120.574 177.134 120.034C174.973 111.292 170.112 96.7065 156.41 82.5137Z" fill="#273C41"/>
<path d="M153.588 126.408C157.701 124.094 157.401 115.76 152.919 107.794C148.437 99.8286 141.469 95.2473 137.356 97.5616C133.243 99.876 133.542 108.21 138.025 116.175C142.507 124.141 149.475 128.723 153.588 126.408Z" fill="white"/>
<path d="M177.183 120.083C177.183 120.083 175.956 110.506 168.638 98.3762C165.053 92.4339 162.107 88.1614 156.41 82.5137L152.972 84.2817C152.972 84.2817 168.196 99.3093 172.616 122.587L177.183 120.083Z" fill="#213337"/>
<path d="M196.63 65.5217L153.708 68.7629L166.133 79.0269L201.688 70.9729L196.63 65.5217Z" fill="white"/>
<path opacity="0.43" d="M231.106 54.6193L208.712 66.4056L203.015 62.8206L225.851 51.2307L231.106 54.6193Z" fill="white"/>
<path opacity="0.4" d="M359.675 201.458L359.724 192.766C359.724 191.047 358.692 189.426 356.581 188.198L278.251 142.821C273.536 140.12 265.335 140.415 259.933 143.558L117.858 225.276C115.059 226.897 113.536 228.959 113.389 230.924V231.268C113.389 231.366 113.389 231.464 113.389 231.562L113.585 238.781C112.849 240.991 113.782 243.25 116.483 244.822L194.813 290.199C197.17 291.574 200.362 292.164 203.702 292.016C204.537 291.967 205.372 291.918 206.207 291.771C207.876 291.525 209.497 291.083 211.019 290.494C211.756 290.199 212.493 289.856 213.18 289.463L355.255 207.744C358.152 206.074 359.626 203.963 359.724 201.949C359.675 201.802 359.675 201.605 359.675 201.458Z" fill="#A8C4E5"/>
<path d="M103.322 232.986L103.076 225.129L113.193 231.71C113.193 231.71 110.344 238.831 110.001 238.585C109.755 238.339 103.322 232.986 103.322 232.986Z" fill="#596D72"/>
<path d="M184.598 284.404L106.268 239.027C101.553 236.326 102.192 231.562 107.594 228.468L249.669 146.75C255.12 143.607 263.321 143.312 267.987 146.013L346.317 191.39C351.031 194.092 350.393 198.855 344.991 201.949L202.916 283.668C197.465 286.811 189.264 287.105 184.598 284.404Z" fill="#596D72"/>
<path d="M193.192 240.942L249.669 146.75C255.12 143.607 263.321 143.312 267.987 146.013L346.317 191.39C351.031 194.092 350.393 198.855 344.991 201.949L202.916 283.668C200.215 285.239 196.777 286.074 193.487 286.222L193.192 240.942Z" fill="#43575C"/>
<path d="M254.973 209.758L269.411 190.261L349.46 187.02V196.154L261.897 223.901L254.973 209.758Z" fill="#43575C"/>
<path d="M179.705 278.509C180.548 278.017 180.546 276.441 179.699 274.988C178.853 273.535 177.483 272.755 176.639 273.247C175.795 273.738 175.798 275.315 176.644 276.768C177.491 278.221 178.861 279 179.705 278.509Z" fill="#273C41"/>
<path d="M184.599 275.466L106.268 230.089C101.554 227.388 102.192 222.624 107.594 219.53L249.669 137.812C255.12 134.669 263.322 134.374 267.987 137.075L346.317 182.453C351.032 185.154 350.393 189.917 344.991 193.011L202.917 274.73C197.514 277.824 189.313 278.168 184.599 275.466Z" fill="#273C41"/>
<path d="M309.779 169.046L288.171 156.523C287.287 155.982 287.385 155.098 288.417 154.509C289.448 153.92 291.019 153.871 291.903 154.362L313.512 166.885C314.396 167.425 314.297 168.309 313.266 168.898C312.235 169.537 310.663 169.586 309.779 169.046Z" fill="#719098"/>
<path d="M152.432 262.944L135.047 252.876C134.31 252.434 133.721 251.305 133.721 250.322C133.721 249.34 134.31 248.898 135.047 249.291L152.432 259.359C153.168 259.801 153.757 260.93 153.757 261.912C153.757 262.894 153.168 263.336 152.432 262.944Z" fill="#273C41"/>
<path d="M324.708 210.445L333.254 205.534C333.745 205.24 334.187 204.454 334.187 203.766C334.187 203.079 333.794 202.784 333.254 203.079L324.708 207.99C324.217 208.284 323.775 209.07 323.775 209.758C323.775 210.445 324.217 210.74 324.708 210.445Z" fill="#273C41"/>
<path d="M312.579 218.057L321.124 213.146C321.615 212.852 322.057 212.066 322.057 211.378C322.057 210.691 321.664 210.396 321.124 210.691L312.579 215.602C312.087 215.896 311.646 216.682 311.646 217.37C311.646 218.008 312.038 218.352 312.579 218.057Z" fill="#273C41"/>
<path d="M254.089 142.477L134.605 211.182C131.806 212.802 131.806 216.78 134.605 218.401L206.993 260.341C208.27 261.077 209.89 261.077 211.167 260.341L330.602 191.636C333.401 190.015 333.401 186.037 330.602 184.417L258.214 142.477C256.937 141.74 255.366 141.74 254.089 142.477Z" fill="#C59552"/>
<path opacity="0.4" d="M126.207 178.131C114.666 171.206 95.759 170.912 83.9726 177.443C72.1863 183.975 72.039 194.877 83.5798 201.802C95.1206 208.726 113.831 209.07 125.814 202.637C138.976 195.614 137.748 185.055 126.207 178.131Z" fill="#A8C4E5"/>
<path d="M117.465 178.72C106.514 172.139 88.5398 171.845 77.3427 178.033C66.1457 184.22 65.9984 194.632 76.9498 201.163C87.9013 207.744 105.679 208.039 117.073 201.949C129.596 195.319 128.417 185.301 117.465 178.72Z" fill="#CC963F"/>
<path d="M116.237 171.894C105.286 165.313 87.3117 165.018 76.1147 171.206C64.9177 177.394 64.7703 187.805 75.7218 194.337C86.6733 200.918 104.451 201.212 115.845 195.123C128.368 188.493 127.189 178.475 116.237 171.894Z" fill="#EEC996"/>
<path d="M105.63 174.791L106.023 187.265C106.072 188.493 104.893 189.377 103.764 189.033L86.0844 183.926C84.4638 183.484 84.3164 181.225 85.8879 180.586L103.175 173.171C104.304 172.68 105.581 173.514 105.63 174.791Z" fill="white" stroke="#323756" stroke-width="1.8767" stroke-miterlimit="10" stroke-linecap="round" stroke-linejoin="round"/>
<path d="M311.105 117.922L290.97 106.332C286.747 103.925 283.309 97.3447 283.309 91.7462V77.2588C283.309 71.6603 286.747 69.0575 290.97 71.4639L311.105 83.0538C315.329 85.4602 318.766 92.0409 318.766 97.6394V112.078C318.717 117.774 315.28 120.377 311.105 117.922Z" fill="#25222A"/>
<path d="M310.123 117.922V99.5056C310.123 98.5234 309.534 97.3447 308.748 96.9028L287.778 84.8218C287.533 84.6744 287.287 84.6253 287.091 84.6744H287.041L284.488 86.0986L286.403 92.6793V104.269C286.403 105.251 286.992 106.43 287.778 106.872L291.118 108.836L296.569 121.458L304.525 117.136L305.507 117.185L306.833 120.574L309.337 119.1C309.828 119.002 310.123 118.56 310.123 117.922Z" fill="#25222A"/>
<path d="M289.399 110.703L294.114 120.475C294.654 121.605 296.127 121.9 297.061 121.016L301.628 116.841L289.399 110.703Z" fill="#5D5866"/>
<path d="M307.078 121.261L286.943 109.671C282.72 107.265 279.282 100.684 279.282 95.0856V80.5982C279.282 74.9997 282.72 72.3969 286.943 74.8033L307.078 86.3932C311.302 88.7996 314.74 95.3803 314.74 100.979V115.417C314.74 121.114 311.302 123.717 307.078 121.261Z" fill="#5D5866"/>
<path d="M293.525 104.466C294.752 106.872 297.944 107.51 300.007 105.742L304.476 101.961C305.311 101.47 305.802 100.537 305.802 99.1618C305.753 96.3625 303.592 92.9739 300.891 91.5497C298.436 90.2729 296.422 91.1077 296.078 93.4159C295.735 90.764 293.672 87.8174 291.216 86.5405C288.515 85.1163 286.355 86.2459 286.404 89.0451C286.404 90.0273 286.698 91.0586 287.14 92.0899L287.239 92.3355C287.288 92.4337 287.386 92.581 287.435 92.6793L293.525 104.466Z" fill="white"/>
<path d="M337.33 106.283L345.973 103.091L388.158 153.87L377.6 157.701L337.33 106.283Z" fill="#5B5B84"/>
<path d="M347.544 137.025L375.193 152.888C386.046 159.125 398.52 150.432 397.587 137.271L397.489 135.945C397.047 129.806 393.708 124.257 388.649 121.359L358.349 103.975C347.839 97.9341 335.758 106.332 336.642 119.1C337.231 126.663 341.357 133.49 347.544 137.025Z" fill="#323756"/>
<path d="M347.987 140.512L329.325 149.106C327.753 149.843 326.084 148.419 326.477 146.749L332.222 124.404L347.987 140.512Z" fill="#323756"/>
<path d="M339.097 140.168L366.746 156.031C377.599 162.268 390.073 153.575 389.14 140.414L389.042 139.088C388.6 132.949 385.26 127.4 380.202 124.502L349.901 107.118C339.392 101.077 327.311 109.475 328.195 122.243C328.735 129.806 332.909 136.633 339.097 140.168Z" fill="white"/>
<path d="M367.876 136.338C367.679 139.383 369.496 142.968 371.903 144.343C374.309 145.718 376.372 144.343 376.568 141.298C376.765 138.253 374.948 134.668 372.541 133.293C370.135 131.918 368.072 133.293 367.876 136.338Z" fill="#C59552"/>
<path d="M353.683 128.726C353.487 131.771 355.304 135.356 357.71 136.731C360.116 138.106 362.179 136.731 362.375 133.686C362.572 130.641 360.755 127.056 358.348 125.681C355.942 124.306 353.83 125.681 353.683 128.726Z" fill="#C59552"/>
<path d="M340.866 121.949C340.669 124.994 342.486 128.579 344.893 129.954C347.299 131.329 349.362 129.954 349.558 126.909C349.754 123.864 347.937 120.279 345.531 118.904C343.076 117.529 341.013 118.904 340.866 121.949Z" fill="#C59552"/>
<path opacity="0.16" d="M350.099 84.0853L328.834 71.8078C324.414 69.2541 320.731 62.2805 320.731 56.3873V41.0651C320.731 35.1228 324.365 32.3726 328.834 34.9755L350.099 47.2529C354.518 49.8066 358.202 56.7802 358.202 62.6734V77.9465C358.202 83.8888 354.568 86.639 350.099 84.0853Z" fill="#323756"/>
<path d="M349.067 84.0854V64.5888C349.067 63.5575 348.429 62.3297 347.643 61.8386L325.445 49.0701C325.2 48.9228 324.954 48.8737 324.709 48.9228L324.66 48.8737L321.958 50.3961L323.972 57.3205V69.598C323.972 70.6293 324.61 71.857 325.396 72.3481L328.932 74.4107L334.727 87.7195L343.174 83.1523L344.254 83.2014L345.679 86.7864L348.33 85.264C348.772 85.2149 349.067 84.7729 349.067 84.0854Z" fill="#CBCBD1"/>
<path d="M345.875 50.7888L324.61 38.5114C320.191 35.9577 316.507 38.7078 316.507 44.601V59.8741C316.507 65.8164 320.141 72.7409 324.61 75.2946L327.459 76.9152L332.222 86.7863C332.812 87.9649 334.383 88.2596 335.365 87.3756L339.294 83.7415L345.924 87.572C350.344 90.1258 354.027 87.3756 354.027 81.4824V66.2093C353.929 60.3161 350.295 53.3425 345.875 50.7888Z" fill="white"/>
<path d="M332.763 51.5746L331.191 54.2756C330.946 54.7176 330.455 54.8649 329.865 54.6194L326.428 53.1952C325.003 52.6059 324.414 54.2756 325.445 56.0435L327.95 60.3161C328.343 61.0036 328.539 61.7894 328.441 62.3787L327.901 65.9637C327.655 67.437 329.129 69.5487 330.405 69.4996L333.499 69.4014C333.99 69.4014 334.629 69.7452 335.12 70.3345L338.214 74.0177C339.491 75.5401 340.964 75.1473 340.718 73.3793L340.129 69.0576C340.031 68.3701 340.227 67.7808 340.62 67.5844L343.125 66.2093C344.156 65.6691 343.567 63.3118 342.143 62.2805L338.656 59.6777C338.067 59.2357 337.625 58.5481 337.33 57.8115L335.758 53.2934C335.218 51.5254 333.401 50.445 332.763 51.5746Z" fill="#EBCD49"/>
<path opacity="0.4" d="M390.32 241.434C384.329 229.303 362.426 222.281 341.407 225.767C322.843 228.812 311.155 239.076 312.874 249.782C312.432 252.532 312.874 255.332 314.249 258.131C315.035 259.751 316.164 261.323 317.49 262.747L311.253 266.381C310.418 265.645 309.584 265.055 308.651 264.613C306.686 263.68 304.967 263.729 303.838 264.613L269.264 285.239C267.988 285.976 267.3 287.548 267.447 289.758C267.791 293.932 271.131 298.794 274.912 300.611C276.582 301.397 278.104 301.495 279.185 300.955L279.234 300.905C279.381 300.856 279.528 300.758 279.627 300.66L313.954 280.132C315.428 279.494 316.263 277.824 316.066 275.417C316.017 274.828 315.919 274.19 315.722 273.551L324.808 268.297C334.63 273.748 349.019 276.105 363.064 273.797C381.628 270.752 393.316 260.488 391.597 249.782C392.137 247.032 391.695 244.233 390.32 241.434ZM329.62 258.917C330.259 259.309 330.946 259.751 331.634 260.095C330.946 259.702 330.259 259.309 329.62 258.917ZM379.86 253.564C380.351 252.778 380.793 251.992 381.087 251.157C380.793 251.992 380.4 252.778 379.86 253.564C379.516 254.104 379.123 254.595 378.73 255.086C379.172 254.595 379.516 254.104 379.86 253.564ZM337.429 262.551C338.166 262.796 338.951 262.993 339.737 263.189C338.951 262.993 338.166 262.747 337.429 262.551C336.594 262.305 335.759 262.011 334.973 261.667C335.808 261.961 336.594 262.256 337.429 262.551ZM351.229 264.712C349.755 264.712 348.282 264.613 346.858 264.466C348.331 264.613 349.755 264.662 351.229 264.712ZM360.167 264.024C365.127 263.189 369.448 261.716 372.886 259.751C369.399 261.716 365.127 263.238 360.167 264.024C358.202 264.368 356.189 264.564 354.224 264.662C356.189 264.564 358.153 264.368 360.167 264.024ZM376.569 257.247C376.029 257.689 375.44 258.131 374.851 258.573C375.44 258.131 376.029 257.689 376.569 257.247Z" fill="#A8C4E5"/>
<path d="M383.346 241.286C377.355 229.156 355.452 222.133 334.433 225.62C313.414 229.107 301.284 241.728 307.275 253.858C313.267 265.988 335.17 273.011 356.189 269.524C377.159 266.038 389.338 253.367 383.346 241.286ZM316.213 252.041C311.695 242.858 320.879 233.33 336.741 230.728C352.604 228.125 369.154 233.429 373.672 242.563C378.19 251.747 369.006 261.274 353.144 263.877C337.281 266.48 320.781 261.176 316.213 252.041Z" fill="#273C41"/>
<path d="M295.686 276.842L287.141 271.931L316.459 254.988L325.004 259.899L295.686 276.842Z" fill="#A8C4E5"/>
<path d="M383.346 237.112C377.355 224.982 355.452 217.959 334.433 221.446C313.414 224.933 301.284 237.554 307.275 249.684C313.267 261.814 335.17 268.837 356.189 265.35C377.159 261.863 389.338 249.242 383.346 237.112ZM316.213 247.867C311.695 238.683 320.879 229.156 336.741 226.553C352.604 223.95 369.154 229.254 373.672 238.389C378.19 247.572 369.006 257.1 353.144 259.702C337.281 262.354 320.781 257.05 316.213 247.867Z" fill="white"/>
<path d="M309.632 271.931C309.289 267.756 305.949 262.895 302.168 261.078C300.203 260.144 298.485 260.194 297.355 261.078L262.782 281.704L272.751 297.419L307.521 276.645C308.994 276.007 309.829 274.337 309.632 271.931Z" fill="white"/>
<path d="M273.176 297.172C275.634 295.48 275.257 290.668 272.335 286.423C269.414 282.178 265.053 280.108 262.595 281.8C260.138 283.492 260.514 288.304 263.436 292.549C266.358 296.794 270.719 298.863 273.176 297.172Z" fill="#719098"/>
<path d="M350.983 238.732L328.687 240.893C327.558 240.992 326.526 240.157 326.428 239.027C326.33 237.898 327.165 236.866 328.294 236.768L350.59 234.607C351.72 234.509 352.751 235.344 352.849 236.473C352.948 237.603 352.113 238.634 350.983 238.732Z" fill="white"/>
<path d="M351.18 245.068L328.884 247.229C327.755 247.327 326.723 246.492 326.625 245.362C326.527 244.233 327.362 243.202 328.491 243.103L350.787 240.942C351.917 240.844 352.948 241.679 353.046 242.809C353.144 243.938 352.309 244.969 351.18 245.068Z" fill="white"/>
<path d="M255.611 142.133L274.371 131.476L255.71 120.819L237.195 131.525L255.611 142.133Z" fill="#EEEFF1" stroke="#D0D2D8" stroke-width="1.8767" stroke-miterlimit="10" stroke-linecap="round" stroke-linejoin="round"/>
<path d="M274.224 131.476V154.902V194.288L255.661 204.994V142.182L274.224 131.476Z" fill="#EEEFF1" stroke="#D0D2D8" stroke-width="1.8767" stroke-miterlimit="10" stroke-linecap="round" stroke-linejoin="round"/>
<path d="M255.612 142.182V204.994L236.999 194.288V131.476L255.612 142.182Z" fill="#EEEFF1" stroke="#D0D2D8" stroke-width="1.8767" stroke-miterlimit="10" stroke-linecap="round" stroke-linejoin="round"/>
<path d="M232.039 180.341L250.455 169.635L232.039 158.978L213.475 169.684L232.039 180.341Z" fill="#EEEFF1" stroke="#D0D2D8" stroke-width="1.8767" stroke-miterlimit="10" stroke-linecap="round" stroke-linejoin="round"/>
<path d="M231.989 219.776L250.356 209.07V169.684L231.989 180.39V219.776Z" fill="#EEEFF1" stroke="#D0D2D8" stroke-width="1.8767" stroke-miterlimit="10" stroke-linecap="round" stroke-linejoin="round"/>
<path d="M231.99 219.776L213.623 209.07V169.684L231.99 180.39V219.776Z" fill="#EEEFF1" stroke="#D0D2D8" stroke-width="1.8767" stroke-miterlimit="10" stroke-linecap="round" stroke-linejoin="round"/>
<path d="M207.14 210.052L225.704 199.346L207.288 188.689L188.724 199.395L207.14 210.052Z" fill="#EEEFF1" stroke="#D0D2D8" stroke-width="1.8767" stroke-miterlimit="10" stroke-linecap="round" stroke-linejoin="round"/>
<path d="M207.484 235.049L188.527 223.704V199.395L207.484 210.101V235.049Z" fill="#EEEFF1" stroke="#D0D2D8" stroke-width="1.8767" stroke-miterlimit="10" stroke-linecap="round" stroke-linejoin="round"/>
<path d="M207.14 235.049V210.052L225.655 199.346V224.343L207.14 235.049Z" fill="#EEEFF1" stroke="#D0D2D8" stroke-width="1.8767" stroke-miterlimit="10" stroke-linecap="round" stroke-linejoin="round"/>
<path opacity="0.16" d="M274.224 194.288L255.66 204.994L255.611 142.133L274.224 131.476V194.288Z" fill="#323756"/>
<path opacity="0.16" d="M250.455 209.07L231.941 219.776L232.039 180.341L250.455 169.635V209.07Z" fill="#323756"/>
<path opacity="0.16" d="M226.047 223.803L207.484 234.509L207.14 210.052L225.704 199.346L226.047 223.803Z" fill="#323756"/>
<path d="M267.888 138.499C267.888 138.892 267.545 139.236 267.152 139.236C266.759 139.236 266.415 138.892 266.415 138.499C266.415 138.107 266.759 137.763 267.152 137.763C267.545 137.714 267.888 138.057 267.888 138.499Z" fill="#323756"/>
<path d="M270.687 136.781C270.687 137.173 270.343 137.517 269.951 137.517C269.558 137.517 269.214 137.173 269.214 136.781C269.214 136.388 269.558 136.044 269.951 136.044C270.343 135.995 270.687 136.339 270.687 136.781Z" fill="#323756"/>
<path d="M273.388 135.258C273.388 135.651 273.045 135.995 272.652 135.995C272.259 135.995 271.915 135.651 271.915 135.258C271.915 134.865 272.259 134.521 272.652 134.521C273.045 134.521 273.388 134.816 273.388 135.258Z" fill="#323756"/>
<path d="M267.888 142.232C267.888 142.625 267.545 142.968 267.152 142.968C266.759 142.968 266.415 142.625 266.415 142.232C266.415 141.839 266.759 141.495 267.152 141.495C267.545 141.495 267.888 141.839 267.888 142.232Z" fill="#323756"/>
<path d="M270.687 140.513C270.687 140.906 270.343 141.25 269.951 141.25C269.558 141.25 269.214 140.906 269.214 140.513C269.214 140.12 269.558 139.776 269.951 139.776C270.343 139.776 270.687 140.12 270.687 140.513Z" fill="#323756"/>
<path d="M273.388 139.04C273.388 139.433 273.045 139.776 272.652 139.776C272.259 139.776 271.915 139.433 271.915 139.04C271.915 138.647 272.259 138.303 272.652 138.303C273.045 138.303 273.388 138.598 273.388 139.04Z" fill="#323756"/>
<path d="M267.888 146.013C267.888 146.406 267.545 146.75 267.152 146.75C266.759 146.75 266.415 146.406 266.415 146.013C266.415 145.62 266.759 145.277 267.152 145.277C267.545 145.277 267.888 145.62 267.888 146.013Z" fill="#323756"/>
<path d="M270.687 144.294C270.687 144.687 270.343 145.031 269.951 145.031C269.558 145.031 269.214 144.687 269.214 144.294C269.214 143.902 269.558 143.558 269.951 143.558C270.343 143.558 270.687 143.902 270.687 144.294Z" fill="#323756"/>
<path d="M273.388 142.821C273.388 143.214 273.045 143.558 272.652 143.558C272.259 143.558 271.915 143.214 271.915 142.821C271.915 142.428 272.259 142.084 272.652 142.084C273.045 142.084 273.388 142.379 273.388 142.821Z" fill="#323756"/>
<path d="M267.888 149.795C267.888 150.188 267.545 150.531 267.152 150.531C266.759 150.531 266.415 150.188 266.415 149.795C266.415 149.402 266.759 149.058 267.152 149.058C267.545 149.058 267.888 149.402 267.888 149.795Z" fill="#323756"/>
<path d="M270.687 148.076C270.687 148.469 270.343 148.812 269.951 148.812C269.558 148.812 269.214 148.469 269.214 148.076C269.214 147.683 269.558 147.339 269.951 147.339C270.343 147.339 270.687 147.683 270.687 148.076Z" fill="#323756"/>
<path d="M273.388 146.602C273.388 146.995 273.045 147.339 272.652 147.339C272.259 147.339 271.915 146.995 271.915 146.602C271.915 146.21 272.259 145.866 272.652 145.866C273.045 145.866 273.388 146.161 273.388 146.602Z" fill="#323756"/>
<path d="M267.888 153.576C267.888 153.969 267.545 154.313 267.152 154.313C266.759 154.313 266.415 153.969 266.415 153.576C266.415 153.183 266.759 152.839 267.152 152.839C267.545 152.839 267.888 153.183 267.888 153.576Z" fill="#323756"/>
<path d="M270.687 151.857C270.687 152.25 270.343 152.594 269.951 152.594C269.558 152.594 269.214 152.25 269.214 151.857C269.214 151.464 269.558 151.121 269.951 151.121C270.343 151.121 270.687 151.464 270.687 151.857Z" fill="#323756"/>
<path d="M273.388 150.335C273.388 150.728 273.045 151.071 272.652 151.071C272.259 151.071 271.915 150.728 271.915 150.335C271.915 149.942 272.259 149.598 272.652 149.598C273.045 149.598 273.388 149.942 273.388 150.335Z" fill="#323756"/>
<path d="M267.888 157.358C267.888 157.75 267.545 158.094 267.152 158.094C266.759 158.094 266.415 157.75 266.415 157.358C266.415 156.965 266.759 156.621 267.152 156.621C267.545 156.621 267.888 156.916 267.888 157.358Z" fill="#323756"/>
<path d="M270.687 155.639C270.687 156.032 270.343 156.375 269.951 156.375C269.558 156.375 269.214 156.032 269.214 155.639C269.214 155.246 269.558 154.902 269.951 154.902C270.343 154.902 270.687 155.197 270.687 155.639Z" fill="#323756"/>
<path d="M273.388 154.116C273.388 154.509 273.045 154.853 272.652 154.853C272.259 154.853 271.915 154.509 271.915 154.116C271.915 153.723 272.259 153.38 272.652 153.38C273.045 153.38 273.388 153.723 273.388 154.116Z" fill="#323756"/>
<path d="M267.888 161.139C267.888 161.532 267.545 161.876 267.152 161.876C266.759 161.876 266.415 161.532 266.415 161.139C266.415 160.746 266.759 160.402 267.152 160.402C267.545 160.353 267.888 160.697 267.888 161.139Z" fill="#323756"/>
<path d="M270.687 159.42C270.687 159.813 270.343 160.157 269.951 160.157C269.558 160.157 269.214 159.813 269.214 159.42C269.214 159.027 269.558 158.684 269.951 158.684C270.343 158.634 270.687 158.978 270.687 159.42Z" fill="#323756"/>
<path d="M273.388 157.898C273.388 158.291 273.045 158.634 272.652 158.634C272.259 158.634 271.915 158.291 271.915 157.898C271.915 157.505 272.259 157.161 272.652 157.161C273.045 157.161 273.388 157.505 273.388 157.898Z" fill="#323756"/>
<path d="M267.888 164.921C267.888 165.313 267.545 165.657 267.152 165.657C266.759 165.657 266.415 165.313 266.415 164.921C266.415 164.528 266.759 164.184 267.152 164.184C267.545 164.135 267.888 164.479 267.888 164.921Z" fill="#323756"/>
<path d="M270.687 163.202C270.687 163.595 270.343 163.938 269.951 163.938C269.558 163.938 269.214 163.595 269.214 163.202C269.214 162.809 269.558 162.465 269.951 162.465C270.343 162.416 270.687 162.76 270.687 163.202Z" fill="#323756"/>
<path d="M273.388 161.679C273.388 162.072 273.045 162.416 272.652 162.416C272.259 162.416 271.915 162.072 271.915 161.679C271.915 161.286 272.259 160.943 272.652 160.943C273.045 160.943 273.388 161.286 273.388 161.679Z" fill="#323756"/>
<path d="M267.888 168.702C267.888 169.095 267.545 169.439 267.152 169.439C266.759 169.439 266.415 169.095 266.415 168.702C266.415 168.309 266.759 167.965 267.152 167.965C267.545 167.916 267.888 168.26 267.888 168.702Z" fill="#323756"/>
<path d="M270.687 166.983C270.687 167.376 270.343 167.72 269.951 167.72C269.558 167.72 269.214 167.376 269.214 166.983C269.214 166.59 269.558 166.246 269.951 166.246C270.343 166.197 270.687 166.541 270.687 166.983Z" fill="#323756"/>
<path d="M273.388 165.461C273.388 165.854 273.045 166.197 272.652 166.197C272.259 166.197 271.915 165.854 271.915 165.461C271.915 165.068 272.259 164.724 272.652 164.724C273.045 164.724 273.388 165.019 273.388 165.461Z" fill="#323756"/>
<path d="M267.888 172.434C267.888 172.827 267.545 173.171 267.152 173.171C266.759 173.171 266.415 172.827 266.415 172.434C266.415 172.041 266.759 171.698 267.152 171.698C267.545 171.698 267.888 172.041 267.888 172.434Z" fill="#323756"/>
<path d="M270.687 170.715C270.687 171.108 270.343 171.452 269.951 171.452C269.558 171.452 269.214 171.108 269.214 170.715C269.214 170.323 269.558 169.979 269.951 169.979C270.343 169.979 270.687 170.323 270.687 170.715Z" fill="#323756"/>
<path d="M273.388 169.242C273.388 169.635 273.045 169.979 272.652 169.979C272.259 169.979 271.915 169.635 271.915 169.242C271.915 168.849 272.259 168.505 272.652 168.505C273.045 168.505 273.388 168.8 273.388 169.242Z" fill="#323756"/>
<path d="M267.888 176.216C267.888 176.609 267.545 176.952 267.152 176.952C266.759 176.952 266.415 176.609 266.415 176.216C266.415 175.823 266.759 175.479 267.152 175.479C267.545 175.479 267.888 175.823 267.888 176.216Z" fill="#323756"/>
<path d="M270.687 174.497C270.687 174.89 270.343 175.234 269.951 175.234C269.558 175.234 269.214 174.89 269.214 174.497C269.214 174.104 269.558 173.76 269.951 173.76C270.343 173.76 270.687 174.104 270.687 174.497Z" fill="#323756"/>
<path d="M273.388 173.024C273.388 173.416 273.045 173.76 272.652 173.76C272.259 173.76 271.915 173.416 271.915 173.024C271.915 172.631 272.259 172.287 272.652 172.287C273.045 172.287 273.388 172.582 273.388 173.024Z" fill="#323756"/>
<path d="M267.888 179.997C267.888 180.39 267.545 180.734 267.152 180.734C266.759 180.734 266.415 180.39 266.415 179.997C266.415 179.604 266.759 179.26 267.152 179.26C267.545 179.26 267.888 179.604 267.888 179.997Z" fill="#323756"/>
<path d="M270.687 178.278C270.687 178.671 270.343 179.015 269.951 179.015C269.558 179.015 269.214 178.671 269.214 178.278C269.214 177.885 269.558 177.542 269.951 177.542C270.343 177.542 270.687 177.885 270.687 178.278Z" fill="#323756"/>
<path d="M273.388 176.805C273.388 177.198 273.045 177.542 272.652 177.542C272.259 177.542 271.915 177.198 271.915 176.805C271.915 176.412 272.259 176.068 272.652 176.068C273.045 176.068 273.388 176.363 273.388 176.805Z" fill="#323756"/>
<path d="M267.888 183.779C267.888 184.172 267.545 184.515 267.152 184.515C266.759 184.515 266.415 184.172 266.415 183.779C266.415 183.386 266.759 183.042 267.152 183.042C267.545 183.042 267.888 183.386 267.888 183.779Z" fill="#323756"/>
<path d="M270.687 182.06C270.687 182.453 270.343 182.796 269.951 182.796C269.558 182.796 269.214 182.453 269.214 182.06C269.214 181.667 269.558 181.323 269.951 181.323C270.343 181.323 270.687 181.667 270.687 182.06Z" fill="#323756"/>
<path d="M273.388 180.537C273.388 180.93 273.045 181.274 272.652 181.274C272.259 181.274 271.915 180.93 271.915 180.537C271.915 180.144 272.259 179.801 272.652 179.801C273.045 179.801 273.388 180.144 273.388 180.537Z" fill="#323756"/>
<path d="M267.888 187.56C267.888 187.953 267.545 188.297 267.152 188.297C266.759 188.297 266.415 187.953 266.415 187.56C266.415 187.167 266.759 186.823 267.152 186.823C267.545 186.823 267.888 187.118 267.888 187.56Z" fill="#323756"/>
<path d="M270.687 185.841C270.687 186.234 270.343 186.578 269.951 186.578C269.558 186.578 269.214 186.234 269.214 185.841C269.214 185.448 269.558 185.105 269.951 185.105C270.343 185.105 270.687 185.399 270.687 185.841Z" fill="#323756"/>
<path d="M273.388 184.319C273.388 184.712 273.045 185.056 272.652 185.056C272.259 185.056 271.915 184.712 271.915 184.319C271.915 183.926 272.259 183.582 272.652 183.582C273.045 183.582 273.388 183.926 273.388 184.319Z" fill="#323756"/>
<path d="M267.888 191.341C267.888 191.734 267.545 192.078 267.152 192.078C266.759 192.078 266.415 191.734 266.415 191.341C266.415 190.949 266.759 190.605 267.152 190.605C267.545 190.556 267.888 190.899 267.888 191.341Z" fill="#323756"/>
<path d="M270.687 189.623C270.687 190.016 270.343 190.359 269.951 190.359C269.558 190.359 269.214 190.016 269.214 189.623C269.214 189.23 269.558 188.886 269.951 188.886C270.343 188.837 270.687 189.181 270.687 189.623Z" fill="#323756"/>
<path d="M273.388 188.1C273.388 188.493 273.045 188.837 272.652 188.837C272.259 188.837 271.915 188.493 271.915 188.1C271.915 187.707 272.259 187.364 272.652 187.364C273.045 187.364 273.388 187.707 273.388 188.1Z" fill="#323756"/>
<path d="M267.888 195.123C267.888 195.516 267.545 195.86 267.152 195.86C266.759 195.86 266.415 195.516 266.415 195.123C266.415 194.73 266.759 194.386 267.152 194.386C267.545 194.337 267.888 194.681 267.888 195.123Z" fill="#323756"/>
<path d="M270.687 193.404C270.687 193.797 270.343 194.141 269.951 194.141C269.558 194.141 269.214 193.797 269.214 193.404C269.214 193.011 269.558 192.668 269.951 192.668C270.343 192.618 270.687 192.962 270.687 193.404Z" fill="#323756"/>
<path d="M273.388 191.882C273.388 192.275 273.045 192.618 272.652 192.618C272.259 192.618 271.915 192.275 271.915 191.882C271.915 191.489 272.259 191.145 272.652 191.145C273.045 191.145 273.388 191.489 273.388 191.882Z" fill="#323756"/>
<path d="M305.163 270.456C304.819 270.653 304.328 270.554 304.132 270.162C303.935 269.818 304.034 269.327 304.427 269.13C304.77 268.934 305.261 269.032 305.458 269.425C305.654 269.769 305.507 270.211 305.163 270.456Z" fill="#323756"/>
<path d="M308.061 271.979C307.717 272.175 307.226 272.077 307.029 271.684C306.833 271.34 306.931 270.849 307.324 270.653C307.668 270.456 308.159 270.555 308.355 270.947C308.552 271.34 308.404 271.782 308.061 271.979Z" fill="#323756"/>
<path d="M301.922 272.323C301.578 272.519 301.087 272.421 300.89 272.028C300.694 271.684 300.792 271.193 301.185 270.997C301.529 270.8 302.02 270.898 302.216 271.291C302.364 271.684 302.265 272.126 301.922 272.323Z" fill="#323756"/>
<path d="M304.819 273.894C304.476 274.09 303.985 273.992 303.788 273.599C303.592 273.256 303.69 272.765 304.083 272.568C304.427 272.372 304.918 272.47 305.114 272.863C305.261 273.206 305.163 273.698 304.819 273.894Z" fill="#323756"/>
<path d="M307.471 275.465C307.128 275.662 306.636 275.564 306.44 275.171C306.244 274.827 306.342 274.336 306.735 274.139C307.078 273.943 307.57 274.041 307.766 274.434C307.962 274.827 307.815 275.269 307.471 275.465Z" fill="#323756"/>
<path d="M298.631 274.238C298.288 274.434 297.797 274.336 297.6 273.943C297.404 273.599 297.502 273.108 297.895 272.912C298.239 272.715 298.73 272.814 298.926 273.206C299.123 273.55 299.024 274.041 298.631 274.238Z" fill="#323756"/>
<path d="M301.528 275.809C301.185 276.006 300.694 275.908 300.497 275.515C300.301 275.171 300.399 274.68 300.792 274.483C301.136 274.287 301.627 274.385 301.823 274.778C302.02 275.122 301.872 275.564 301.528 275.809Z" fill="#323756"/>
<path d="M304.181 277.381C303.837 277.577 303.346 277.479 303.149 277.086C302.953 276.742 303.051 276.251 303.444 276.055C303.788 275.858 304.279 275.957 304.475 276.349C304.672 276.693 304.574 277.184 304.181 277.381Z" fill="#323756"/>
<path d="M295.39 276.153C295.046 276.35 294.555 276.251 294.359 275.858C294.163 275.515 294.261 275.024 294.654 274.827C294.997 274.631 295.488 274.729 295.685 275.122C295.881 275.466 295.734 275.908 295.39 276.153Z" fill="#323756"/>
<path d="M298.288 277.675C297.944 277.872 297.453 277.774 297.256 277.381C297.06 277.037 297.158 276.546 297.551 276.349C297.895 276.153 298.386 276.251 298.582 276.644C298.73 277.037 298.631 277.479 298.288 277.675Z" fill="#323756"/>
<path d="M300.94 279.296C300.596 279.492 300.105 279.394 299.908 279.001C299.712 278.658 299.81 278.166 300.203 277.97C300.547 277.774 301.038 277.872 301.234 278.265C301.431 278.608 301.283 279.05 300.94 279.296Z" fill="#323756"/>
<path d="M292.1 278.019C291.756 278.216 291.265 278.117 291.069 277.725C290.872 277.381 290.971 276.89 291.364 276.693C291.707 276.497 292.198 276.595 292.395 276.988C292.591 277.381 292.493 277.823 292.1 278.019Z" fill="#323756"/>
<path d="M294.997 279.591C294.653 279.787 294.162 279.689 293.966 279.296C293.769 278.952 293.868 278.461 294.261 278.265C294.604 278.068 295.095 278.167 295.292 278.559C295.488 278.903 295.39 279.394 294.997 279.591Z" fill="#323756"/>
<path d="M297.649 281.162C297.305 281.359 296.814 281.26 296.618 280.868C296.421 280.524 296.52 280.033 296.912 279.836C297.256 279.64 297.747 279.738 297.944 280.131C298.14 280.524 298.042 280.966 297.649 281.162Z" fill="#323756"/>
<path d="M288.859 279.934C288.515 280.131 288.024 280.033 287.827 279.64C287.631 279.296 287.729 278.805 288.122 278.608C288.466 278.412 288.957 278.51 289.153 278.903C289.35 279.247 289.202 279.738 288.859 279.934Z" fill="#323756"/>
<path d="M291.756 281.506C291.413 281.703 290.922 281.604 290.725 281.211C290.529 280.868 290.627 280.377 291.02 280.18C291.364 279.984 291.855 280.082 292.051 280.475C292.248 280.819 292.1 281.261 291.756 281.506Z" fill="#323756"/>
<path d="M294.408 283.077C294.065 283.274 293.573 283.176 293.377 282.783C293.181 282.439 293.279 281.948 293.672 281.751C294.015 281.555 294.507 281.653 294.703 282.046C294.899 282.39 294.752 282.881 294.408 283.077Z" fill="#323756"/>
<path d="M285.568 281.85C285.224 282.046 284.733 281.948 284.537 281.555C284.34 281.211 284.438 280.72 284.831 280.524C285.175 280.327 285.666 280.426 285.863 280.818C286.059 281.162 285.961 281.604 285.568 281.85Z" fill="#323756"/>
<path d="M288.465 283.372C288.122 283.569 287.631 283.47 287.434 283.078C287.238 282.734 287.336 282.243 287.729 282.046C288.073 281.85 288.564 281.948 288.76 282.341C288.957 282.734 288.858 283.176 288.465 283.372Z" fill="#323756"/>
<path d="M291.167 284.993C290.823 285.189 290.332 285.091 290.135 284.698C289.939 284.354 290.037 283.863 290.43 283.667C290.774 283.471 291.265 283.569 291.461 283.962C291.609 284.305 291.51 284.747 291.167 284.993Z" fill="#323756"/>
<path d="M282.327 283.716C281.983 283.912 281.492 283.814 281.295 283.421C281.099 283.077 281.197 282.586 281.59 282.39C281.934 282.194 282.425 282.292 282.621 282.685C282.818 283.077 282.671 283.519 282.327 283.716Z" fill="#323756"/>
<path d="M285.225 285.287C284.881 285.484 284.39 285.386 284.193 284.993C283.997 284.649 284.095 284.158 284.488 283.961C284.832 283.765 285.323 283.863 285.519 284.256C285.716 284.6 285.569 285.091 285.225 285.287Z" fill="#323756"/>
<path d="M287.877 286.859C287.533 287.055 287.042 286.957 286.845 286.564C286.649 286.22 286.747 285.729 287.14 285.533C287.484 285.336 287.975 285.435 288.171 285.828C288.368 286.22 288.22 286.662 287.877 286.859Z" fill="#323756"/>
<path d="M279.086 285.631C278.742 285.828 278.251 285.729 278.054 285.337C277.858 284.993 277.956 284.502 278.349 284.305C278.693 284.109 279.184 284.207 279.38 284.6C279.528 284.944 279.429 285.435 279.086 285.631Z" fill="#323756"/>
<path d="M281.934 287.203C281.59 287.399 281.099 287.301 280.902 286.908C280.706 286.564 280.804 286.073 281.197 285.877C281.59 285.68 282.032 285.779 282.228 286.172C282.425 286.515 282.327 286.957 281.934 287.203Z" fill="#323756"/>
<path d="M284.635 288.774C284.291 288.971 283.8 288.872 283.604 288.48C283.407 288.136 283.505 287.645 283.898 287.448C284.291 287.252 284.733 287.35 284.93 287.743C285.077 288.087 284.979 288.578 284.635 288.774Z" fill="#323756"/>
<path d="M275.795 287.547C275.451 287.743 274.96 287.645 274.764 287.252C274.567 286.908 274.666 286.417 275.058 286.221C275.402 286.024 275.893 286.122 276.09 286.515C276.286 286.859 276.139 287.301 275.795 287.547Z" fill="#323756"/>
<path d="M278.693 289.069C278.349 289.265 277.858 289.167 277.662 288.774C277.465 288.43 277.563 287.939 277.956 287.743C278.3 287.546 278.791 287.645 278.988 288.038C279.184 288.43 279.037 288.872 278.693 289.069Z" fill="#323756"/>
<path d="M281.345 290.69C281.001 290.886 280.51 290.788 280.314 290.395C280.117 290.051 280.215 289.56 280.608 289.364C280.952 289.167 281.443 289.265 281.64 289.658C281.836 290.002 281.738 290.444 281.345 290.69Z" fill="#323756"/>
<path d="M275.451 290.984C275.108 291.181 274.616 291.082 274.42 290.69C274.224 290.346 274.322 289.855 274.715 289.658C275.108 289.462 275.55 289.56 275.746 289.953C275.893 290.297 275.795 290.788 275.451 290.984Z" fill="#323756"/>
<path d="M278.104 292.556C277.76 292.752 277.269 292.654 277.072 292.261C276.876 291.917 276.974 291.426 277.367 291.23C277.711 291.033 278.202 291.132 278.398 291.524C278.595 291.917 278.447 292.359 278.104 292.556Z" fill="#323756"/>
<path d="M274.813 294.471C274.469 294.667 273.978 294.569 273.782 294.176C273.585 293.833 273.684 293.341 274.076 293.145C274.42 292.949 274.911 293.047 275.108 293.44C275.304 293.783 275.206 294.274 274.813 294.471Z" fill="#323756"/>
<path d="M243.382 176.903C243.382 177.296 243.039 177.64 242.646 177.64C242.253 177.64 241.909 177.296 241.909 176.903C241.909 176.51 242.253 176.167 242.646 176.167C243.039 176.167 243.382 176.51 243.382 176.903Z" fill="#323756"/>
<path d="M246.182 175.184C246.182 175.577 245.838 175.921 245.445 175.921C245.052 175.921 244.708 175.577 244.708 175.184C244.708 174.791 245.052 174.448 245.445 174.448C245.838 174.448 246.182 174.791 246.182 175.184Z" fill="#323756"/>
<path d="M248.883 173.662C248.883 174.055 248.539 174.399 248.146 174.399C247.753 174.399 247.41 174.055 247.41 173.662C247.41 173.269 247.753 172.925 248.146 172.925C248.539 172.925 248.883 173.269 248.883 173.662Z" fill="#323756"/>
<path d="M243.382 180.685C243.382 181.078 243.039 181.421 242.646 181.421C242.253 181.421 241.909 181.078 241.909 180.685C241.909 180.292 242.253 179.948 242.646 179.948C243.039 179.948 243.382 180.243 243.382 180.685Z" fill="#323756"/>
<path d="M246.182 178.966C246.182 179.359 245.838 179.702 245.445 179.702C245.052 179.702 244.708 179.359 244.708 178.966C244.708 178.573 245.052 178.229 245.445 178.229C245.838 178.229 246.182 178.524 246.182 178.966Z" fill="#323756"/>
<path d="M248.883 177.443C248.883 177.836 248.539 178.18 248.146 178.18C247.753 178.18 247.41 177.836 247.41 177.443C247.41 177.05 247.753 176.707 248.146 176.707C248.539 176.707 248.883 177.05 248.883 177.443Z" fill="#323756"/>
<path d="M243.382 184.466C243.382 184.859 243.039 185.203 242.646 185.203C242.253 185.203 241.909 184.859 241.909 184.466C241.909 184.073 242.253 183.729 242.646 183.729C243.039 183.68 243.382 184.024 243.382 184.466Z" fill="#323756"/>
<path d="M246.182 182.747C246.182 183.14 245.838 183.484 245.445 183.484C245.052 183.484 244.708 183.14 244.708 182.747C244.708 182.354 245.052 182.011 245.445 182.011C245.838 181.961 246.182 182.305 246.182 182.747Z" fill="#323756"/>
<path d="M248.883 181.225C248.883 181.618 248.539 181.962 248.146 181.962C247.753 181.962 247.41 181.618 247.41 181.225C247.41 180.832 247.753 180.488 248.146 180.488C248.539 180.488 248.883 180.832 248.883 181.225Z" fill="#323756"/>
<path d="M243.382 188.248C243.382 188.64 243.039 188.984 242.646 188.984C242.253 188.984 241.909 188.64 241.909 188.248C241.909 187.855 242.253 187.511 242.646 187.511C243.039 187.462 243.382 187.806 243.382 188.248Z" fill="#323756"/>
<path d="M246.182 186.529C246.182 186.922 245.838 187.265 245.445 187.265C245.052 187.265 244.708 186.922 244.708 186.529C244.708 186.136 245.052 185.792 245.445 185.792C245.838 185.743 246.182 186.087 246.182 186.529Z" fill="#323756"/>
<path d="M248.883 185.006C248.883 185.399 248.539 185.743 248.146 185.743C247.753 185.743 247.41 185.399 247.41 185.006C247.41 184.613 247.753 184.27 248.146 184.27C248.539 184.27 248.883 184.613 248.883 185.006Z" fill="#323756"/>
<path d="M243.382 192.029C243.382 192.422 243.039 192.766 242.646 192.766C242.253 192.766 241.909 192.422 241.909 192.029C241.909 191.636 242.253 191.292 242.646 191.292C243.039 191.243 243.382 191.587 243.382 192.029Z" fill="#323756"/>
<path d="M246.182 190.31C246.182 190.703 245.838 191.047 245.445 191.047C245.052 191.047 244.708 190.703 244.708 190.31C244.708 189.917 245.052 189.573 245.445 189.573C245.838 189.524 246.182 189.868 246.182 190.31Z" fill="#323756"/>
<path d="M248.883 188.788C248.883 189.181 248.539 189.524 248.146 189.524C247.753 189.524 247.41 189.181 247.41 188.788C247.41 188.395 247.753 188.051 248.146 188.051C248.539 188.051 248.883 188.346 248.883 188.788Z" fill="#323756"/>
<path d="M243.382 195.761C243.382 196.154 243.039 196.498 242.646 196.498C242.253 196.498 241.909 196.154 241.909 195.761C241.909 195.368 242.253 195.025 242.646 195.025C243.039 195.025 243.382 195.368 243.382 195.761Z" fill="#323756"/>
<path d="M246.182 194.043C246.182 194.435 245.838 194.779 245.445 194.779C245.052 194.779 244.708 194.435 244.708 194.043C244.708 193.65 245.052 193.306 245.445 193.306C245.838 193.306 246.182 193.65 246.182 194.043Z" fill="#323756"/>
<path d="M248.883 192.569C248.883 192.962 248.539 193.306 248.146 193.306C247.753 193.306 247.41 192.962 247.41 192.569C247.41 192.176 247.753 191.833 248.146 191.833C248.539 191.833 248.883 192.127 248.883 192.569Z" fill="#323756"/>
<path d="M243.382 199.543C243.382 199.936 243.039 200.28 242.646 200.28C242.253 200.28 241.909 199.936 241.909 199.543C241.909 199.15 242.253 198.806 242.646 198.806C243.039 198.806 243.382 199.15 243.382 199.543Z" fill="#323756"/>
<path d="M246.182 197.824C246.182 198.217 245.838 198.561 245.445 198.561C245.052 198.561 244.708 198.217 244.708 197.824C244.708 197.431 245.052 197.087 245.445 197.087C245.838 197.087 246.182 197.431 246.182 197.824Z" fill="#323756"/>
<path d="M248.883 196.351C248.883 196.744 248.539 197.087 248.146 197.087C247.753 197.087 247.41 196.744 247.41 196.351C247.41 195.958 247.753 195.614 248.146 195.614C248.539 195.614 248.883 195.909 248.883 196.351Z" fill="#323756"/>
<path d="M243.382 203.324C243.382 203.717 243.039 204.061 242.646 204.061C242.253 204.061 241.909 203.717 241.909 203.324C241.909 202.931 242.253 202.588 242.646 202.588C243.039 202.588 243.382 202.931 243.382 203.324Z" fill="#323756"/>
<path d="M246.182 201.605C246.182 201.998 245.838 202.342 245.445 202.342C245.052 202.342 244.708 201.998 244.708 201.605C244.708 201.213 245.052 200.869 245.445 200.869C245.838 200.869 246.182 201.213 246.182 201.605Z" fill="#323756"/>
<path d="M248.883 200.132C248.883 200.525 248.539 200.869 248.146 200.869C247.753 200.869 247.41 200.525 247.41 200.132C247.41 199.739 247.753 199.395 248.146 199.395C248.539 199.395 248.883 199.69 248.883 200.132Z" fill="#323756"/>
<path d="M243.382 207.106C243.382 207.499 243.039 207.842 242.646 207.842C242.253 207.842 241.909 207.499 241.909 207.106C241.909 206.713 242.253 206.369 242.646 206.369C243.039 206.369 243.382 206.713 243.382 207.106Z" fill="#323756"/>
<path d="M246.182 205.387C246.182 205.78 245.838 206.124 245.445 206.124C245.052 206.124 244.708 205.78 244.708 205.387C244.708 204.994 245.052 204.65 245.445 204.65C245.838 204.65 246.182 204.994 246.182 205.387Z" fill="#323756"/>
<path d="M248.883 203.864C248.883 204.257 248.539 204.601 248.146 204.601C247.753 204.601 247.41 204.257 247.41 203.864C247.41 203.472 247.753 203.128 248.146 203.128C248.539 203.128 248.883 203.472 248.883 203.864Z" fill="#323756"/>
<path d="M243.382 210.887C243.382 211.28 243.039 211.624 242.646 211.624C242.253 211.624 241.909 211.28 241.909 210.887C241.909 210.494 242.253 210.151 242.646 210.151C243.039 210.151 243.382 210.445 243.382 210.887Z" fill="#323756"/>
<path d="M246.182 209.168C246.182 209.561 245.838 209.905 245.445 209.905C245.052 209.905 244.708 209.561 244.708 209.168C244.708 208.775 245.052 208.432 245.445 208.432C245.838 208.432 246.182 208.726 246.182 209.168Z" fill="#323756"/>
<path d="M248.883 207.646C248.883 208.039 248.539 208.383 248.146 208.383C247.753 208.383 247.41 208.039 247.41 207.646C247.41 207.253 247.753 206.909 248.146 206.909C248.539 206.909 248.883 207.253 248.883 207.646Z" fill="#323756"/>
<path d="M218.484 207.106C218.484 207.499 218.14 207.842 217.747 207.842C217.355 207.842 217.011 207.499 217.011 207.106C217.011 206.713 217.355 206.369 217.747 206.369C218.14 206.369 218.484 206.713 218.484 207.106Z" fill="#323756"/>
<path d="M221.283 205.387C221.283 205.78 220.94 206.123 220.547 206.123C220.154 206.123 219.81 205.78 219.81 205.387C219.81 204.994 220.154 204.65 220.547 204.65C220.94 204.65 221.283 204.994 221.283 205.387Z" fill="#323756"/>
<path d="M223.985 203.864C223.985 204.257 223.641 204.601 223.248 204.601C222.855 204.601 222.511 204.257 222.511 203.864C222.511 203.472 222.855 203.128 223.248 203.128C223.641 203.128 223.985 203.472 223.985 203.864Z" fill="#323756"/>
<path d="M218.484 210.887C218.484 211.28 218.14 211.624 217.747 211.624C217.355 211.624 217.011 211.28 217.011 210.887C217.011 210.494 217.355 210.151 217.747 210.151C218.14 210.151 218.484 210.445 218.484 210.887Z" fill="#323756"/>
<path d="M221.283 209.168C221.283 209.561 220.94 209.905 220.547 209.905C220.154 209.905 219.81 209.561 219.81 209.168C219.81 208.775 220.154 208.432 220.547 208.432C220.94 208.432 221.283 208.726 221.283 209.168Z" fill="#323756"/>
<path d="M223.985 207.646C223.985 208.039 223.641 208.383 223.248 208.383C222.855 208.383 222.511 208.039 222.511 207.646C222.511 207.253 222.855 206.909 223.248 206.909C223.641 206.909 223.985 207.253 223.985 207.646Z" fill="#323756"/>
<path d="M218.484 214.669C218.484 215.061 218.14 215.405 217.747 215.405C217.355 215.405 217.011 215.061 217.011 214.669C217.011 214.276 217.355 213.932 217.747 213.932C218.14 213.883 218.484 214.227 218.484 214.669Z" fill="#323756"/>
<path d="M221.283 212.95C221.283 213.343 220.94 213.686 220.547 213.686C220.154 213.686 219.81 213.343 219.81 212.95C219.81 212.557 220.154 212.213 220.547 212.213C220.94 212.164 221.283 212.508 221.283 212.95Z" fill="#323756"/>
<path d="M223.985 211.427C223.985 211.82 223.641 212.164 223.248 212.164C222.855 212.164 222.511 211.82 222.511 211.427C222.511 211.034 222.855 210.691 223.248 210.691C223.641 210.691 223.985 211.034 223.985 211.427Z" fill="#323756"/>
<path d="M218.484 218.45C218.484 218.843 218.14 219.187 217.747 219.187C217.355 219.187 217.011 218.843 217.011 218.45C217.011 218.057 217.355 217.713 217.747 217.713C218.14 217.664 218.484 218.008 218.484 218.45Z" fill="#323756"/>
<path d="M221.283 216.731C221.283 217.124 220.94 217.468 220.547 217.468C220.154 217.468 219.81 217.124 219.81 216.731C219.81 216.338 220.154 215.995 220.547 215.995C220.94 215.945 221.283 216.289 221.283 216.731Z" fill="#323756"/>
<path d="M223.985 215.209C223.985 215.602 223.641 215.945 223.248 215.945C222.855 215.945 222.511 215.602 222.511 215.209C222.511 214.816 222.855 214.472 223.248 214.472C223.641 214.472 223.985 214.816 223.985 215.209Z" fill="#323756"/>
<path d="M218.484 222.231C218.484 222.624 218.14 222.968 217.747 222.968C217.355 222.968 217.011 222.624 217.011 222.231C217.011 221.839 217.355 221.495 217.747 221.495C218.14 221.446 218.484 221.79 218.484 222.231Z" fill="#323756"/>
<path d="M221.283 220.513C221.283 220.906 220.94 221.249 220.547 221.249C220.154 221.249 219.81 220.906 219.81 220.513C219.81 220.12 220.154 219.776 220.547 219.776C220.94 219.727 221.283 220.071 221.283 220.513Z" fill="#323756"/>
<path d="M223.985 218.99C223.985 219.383 223.641 219.727 223.248 219.727C222.855 219.727 222.511 219.383 222.511 218.99C222.511 218.597 222.855 218.254 223.248 218.254C223.641 218.254 223.985 218.548 223.985 218.99Z" fill="#323756"/>
<path d="M218.484 225.964C218.484 226.357 218.14 226.7 217.747 226.7C217.355 226.7 217.011 226.357 217.011 225.964C217.011 225.571 217.355 225.227 217.747 225.227C218.14 225.227 218.484 225.571 218.484 225.964Z" fill="#323756"/>
<path d="M221.283 224.245C221.283 224.638 220.94 224.982 220.547 224.982C220.154 224.982 219.81 224.638 219.81 224.245C219.81 223.852 220.154 223.508 220.547 223.508C220.94 223.508 221.283 223.852 221.283 224.245Z" fill="#323756"/>
<path d="M223.985 222.772C223.985 223.165 223.641 223.508 223.248 223.508C222.855 223.508 222.511 223.165 222.511 222.772C222.511 222.379 222.855 222.035 223.248 222.035C223.641 222.035 223.985 222.33 223.985 222.772Z" fill="#323756"/>
<path opacity="0.4" d="M207.14 235.049L230.713 249.144L300.154 209.168L274.224 194.288L207.14 235.049Z" fill="#A8C4E5"/>
</svg>
