<svg width="331" height="42" viewBox="0 0 331 42" fill="none" xmlns="http://www.w3.org/2000/svg">
<path d="M60.8007 30C58.9412 30 57.2608 29.6105 55.7596 28.8315C54.2754 28.0525 53.1068 26.9834 52.2539 25.6243C51.418 24.2486 51 22.7072 51 21C51 19.2928 51.418 17.7597 52.2539 16.4006C53.1068 15.0249 54.2754 13.9475 55.7596 13.1685C57.2608 12.3895 58.9412 12 60.8007 12C62.6602 12 64.332 12.3895 65.8162 13.1685C67.3004 13.9475 68.4689 15.0249 69.3219 16.4006C70.1749 17.7597 70.6014 19.2928 70.6014 21C70.6014 22.7072 70.1749 24.2486 69.3219 25.6243C68.4689 26.9834 67.3004 28.0525 65.8162 28.8315C64.332 29.6105 62.6602 30 60.8007 30ZM60.8007 26.5691C61.8584 26.5691 62.8137 26.337 63.6667 25.8729C64.5197 25.3923 65.185 24.7293 65.6626 23.884C66.1574 23.0387 66.4047 22.0773 66.4047 21C66.4047 19.9227 66.1574 18.9613 65.6626 18.116C65.185 17.2707 64.5197 16.616 63.6667 16.1519C62.8137 15.6713 61.8584 15.4309 60.8007 15.4309C59.743 15.4309 58.7877 15.6713 57.9347 16.1519C57.0817 16.616 56.4079 17.2707 55.9131 18.116C55.4355 18.9613 55.1966 19.9227 55.1966 21C55.1966 22.0773 55.4355 23.0387 55.9131 23.884C56.4079 24.7293 57.0817 25.3923 57.9347 25.8729C58.7877 26.337 59.743 26.5691 60.8007 26.5691Z" fill="black"/>
<path d="M85.1297 29.7017L81.6751 24.8536H81.4704H77.8623V29.7017H73.7169V12.2983H81.4704C83.0569 12.2983 84.4302 12.5552 85.5903 13.0691C86.7674 13.5829 87.6715 14.3122 88.3027 15.2569C88.9339 16.2017 89.2495 17.3204 89.2495 18.6133C89.2495 19.9061 88.9254 21.0249 88.2771 21.9696C87.6459 22.8978 86.7418 23.6105 85.5647 24.1077L89.5822 29.7017H85.1297ZM85.0529 18.6133C85.0529 17.6354 84.7288 16.8895 84.0805 16.3757C83.4322 15.8453 82.4854 15.5801 81.2401 15.5801H77.8623V21.6464H81.2401C82.4854 21.6464 83.4322 21.3812 84.0805 20.8508C84.7288 20.3204 85.0529 19.5746 85.0529 18.6133Z" fill="black"/>
<path d="M92.534 12.2983H100.671C102.616 12.2983 104.331 12.663 105.815 13.3923C107.316 14.105 108.476 15.116 109.295 16.4254C110.131 17.7348 110.549 19.2597 110.549 21C110.549 22.7403 110.131 24.2652 109.295 25.5746C108.476 26.884 107.316 27.9033 105.815 28.6326C104.331 29.3453 102.616 29.7017 100.671 29.7017H92.534V12.2983ZM100.467 26.395C102.258 26.395 103.682 25.9144 104.74 24.953C105.815 23.9751 106.352 22.6575 106.352 21C106.352 19.3425 105.815 18.0331 104.74 17.0718C103.682 16.0939 102.258 15.605 100.467 15.605H96.6794V26.395H100.467Z" fill="black"/>
<path d="M130.103 12.2983V29.7017H126.7L117.769 19.1354V29.7017H113.675V12.2983H117.104L126.009 22.8646V12.2983H130.103Z" fill="black"/>
<path d="M142.3 30C139.741 30 137.745 29.3122 136.312 27.9365C134.896 26.5608 134.188 24.5967 134.188 22.0442V12.2983H138.333V21.895C138.333 25.0111 139.664 26.5691 142.325 26.5691C143.622 26.5691 144.611 26.1961 145.294 25.4503C145.976 24.6878 146.317 23.5028 146.317 21.895V12.2983H150.411V22.0442C150.411 24.5967 149.695 26.5608 148.262 27.9365C146.846 29.3122 144.859 30 142.3 30Z" fill="black"/>
<path d="M170.936 12.2983V29.7017H167.533L158.602 19.1354V29.7017H154.508V12.2983H157.937L166.842 22.8646V12.2983H170.936Z" fill="black"/>
<path d="M187.278 20.7265H191.065V27.7873C190.093 28.5 188.967 29.047 187.687 29.4282C186.408 29.8094 185.12 30 183.823 30C181.964 30 180.292 29.6188 178.808 28.8564C177.324 28.0773 176.155 27.0083 175.302 25.6492C174.466 24.2735 174.048 22.7238 174.048 21C174.048 19.2762 174.466 17.7348 175.302 16.3757C176.155 15 177.332 13.9309 178.834 13.1685C180.335 12.3895 182.024 12 183.9 12C185.47 12 186.894 12.2569 188.174 12.7707C189.453 13.2845 190.528 14.0304 191.398 15.0083L188.737 17.395C187.457 16.0856 185.913 15.4309 184.105 15.4309C182.962 15.4309 181.947 15.663 181.06 16.1271C180.173 16.5912 179.482 17.2459 178.987 18.0912C178.492 18.9365 178.245 19.9061 178.245 21C178.245 22.0773 178.492 23.0387 178.987 23.884C179.482 24.7293 180.164 25.3923 181.034 25.8729C181.921 26.337 182.928 26.5691 184.054 26.5691C185.248 26.5691 186.323 26.3204 187.278 25.8232V20.7265Z" fill="black"/>
<path d="M208.048 30C206.632 30 205.259 29.8177 203.929 29.453C202.615 29.0718 201.557 28.5829 200.755 27.9862L202.163 24.953C202.931 25.5 203.843 25.9392 204.901 26.2707C205.959 26.6022 207.016 26.768 208.074 26.768C209.251 26.768 210.121 26.6022 210.684 26.2707C211.247 25.9227 211.529 25.4669 211.529 24.9033C211.529 24.489 211.358 24.1492 211.017 23.884C210.693 23.6022 210.266 23.3785 209.737 23.2127C209.226 23.047 208.526 22.8646 207.639 22.6657C206.274 22.3508 205.157 22.0359 204.287 21.721C203.417 21.4061 202.666 20.9006 202.035 20.2044C201.421 19.5083 201.114 18.5801 201.114 17.4199C201.114 16.4088 201.395 15.4972 201.958 14.6851C202.521 13.8564 203.366 13.2017 204.492 12.721C205.635 12.2403 207.025 12 208.663 12C209.806 12 210.923 12.1326 212.015 12.3978C213.107 12.663 214.062 13.0442 214.881 13.5414L213.601 16.5994C211.947 15.6878 210.292 15.232 208.637 15.232C207.477 15.232 206.615 15.4144 206.052 15.779C205.507 16.1436 205.234 16.6243 205.234 17.221C205.234 17.8177 205.549 18.2652 206.18 18.5635C206.829 18.8453 207.81 19.1271 209.123 19.4088C210.488 19.7238 211.605 20.0387 212.475 20.3536C213.345 20.6685 214.087 21.1657 214.702 21.8453C215.333 22.5249 215.648 23.4448 215.648 24.605C215.648 25.5994 215.358 26.5111 214.778 27.3398C214.215 28.1519 213.362 28.7983 212.219 29.279C211.076 29.7597 209.686 30 208.048 30Z" fill="black"/>
<path d="M232.35 26.4696V29.7017H218.481V12.2983H232.018V15.5304H222.601V19.3094H230.917V22.442H222.601V26.4696H232.35Z" fill="black"/>
<path d="M247.062 29.7017L243.607 24.8536H243.402H239.794V29.7017H235.649V12.2983H243.402C244.989 12.2983 246.362 12.5552 247.522 13.0691C248.699 13.5829 249.604 14.3122 250.235 15.2569C250.866 16.2017 251.182 17.3204 251.182 18.6133C251.182 19.9061 250.857 21.0249 250.209 21.9696C249.578 22.8978 248.674 23.6105 247.497 24.1077L251.514 29.7017H247.062ZM246.985 18.6133C246.985 17.6354 246.661 16.8895 246.012 16.3757C245.364 15.8453 244.417 15.5801 243.172 15.5801H239.794V21.6464H243.172C244.417 21.6464 245.364 21.3812 246.012 20.8508C246.661 20.3204 246.985 19.5746 246.985 18.6133Z" fill="black"/>
<path d="M271.688 12.2983L263.934 29.7017H259.84L252.112 12.2983H256.59L262.04 24.7293L267.568 12.2983H271.688Z" fill="black"/>
<path d="M273.183 12.2983H277.329V29.7017H273.183V12.2983Z" fill="black"/>
<path d="M290.152 30C288.327 30 286.672 29.6188 285.188 28.8564C283.721 28.0773 282.56 27.0083 281.708 25.6492C280.872 24.2735 280.454 22.7238 280.454 21C280.454 19.2762 280.872 17.7348 281.708 16.3757C282.56 15 283.721 13.9309 285.188 13.1685C286.672 12.3895 288.335 12 290.178 12C291.73 12 293.129 12.2652 294.374 12.7956C295.637 13.326 296.694 14.0884 297.547 15.0829L294.886 17.4696C293.675 16.1105 292.174 15.4309 290.382 15.4309C289.273 15.4309 288.284 15.6713 287.414 16.1519C286.544 16.616 285.861 17.2707 285.367 18.116C284.889 18.9613 284.65 19.9227 284.65 21C284.65 22.0773 284.889 23.0387 285.367 23.884C285.861 24.7293 286.544 25.3923 287.414 25.8729C288.284 26.337 289.273 26.5691 290.382 26.5691C292.174 26.5691 293.675 25.8812 294.886 24.5055L297.547 26.8923C296.694 27.9033 295.637 28.674 294.374 29.2044C293.112 29.7348 291.704 30 290.152 30Z" fill="black"/>
<path d="M314.216 26.4696V29.7017H300.347V12.2983H313.883V15.5304H304.467V19.3094H312.783V22.442H304.467V26.4696H314.216Z" fill="black"/>
<path d="M323.4 30C321.984 30 320.611 29.8177 319.28 29.453C317.967 29.0718 316.909 28.5829 316.107 27.9862L317.514 24.953C318.282 25.5 319.195 25.9392 320.253 26.2707C321.31 26.6022 322.368 26.768 323.426 26.768C324.603 26.768 325.473 26.6022 326.036 26.2707C326.599 25.9227 326.88 25.4669 326.88 24.9033C326.88 24.489 326.71 24.1492 326.368 23.884C326.044 23.6022 325.618 23.3785 325.089 23.2127C324.577 23.047 323.878 22.8646 322.991 22.6657C321.626 22.3508 320.508 22.0359 319.638 21.721C318.768 21.4061 318.018 20.9006 317.387 20.2044C316.772 19.5083 316.465 18.5801 316.465 17.4199C316.465 16.4088 316.747 15.4972 317.31 14.6851C317.873 13.8564 318.717 13.2017 319.843 12.721C320.986 12.2403 322.376 12 324.014 12C325.157 12 326.275 12.1326 327.366 12.3978C328.458 12.663 329.413 13.0442 330.232 13.5414L328.953 16.5994C327.298 15.6878 325.643 15.232 323.989 15.232C322.828 15.232 321.967 15.4144 321.404 15.779C320.858 16.1436 320.585 16.6243 320.585 17.221C320.585 17.8177 320.901 18.2652 321.532 18.5635C322.18 18.8453 323.161 19.1271 324.475 19.4088C325.839 19.7238 326.957 20.0387 327.827 20.3536C328.697 20.6685 329.439 21.1657 330.053 21.8453C330.684 22.5249 331 23.4448 331 24.605C331 25.5994 330.71 26.5111 330.13 27.3398C329.567 28.1519 328.714 28.7983 327.571 29.279C326.428 29.7597 325.038 30 323.4 30Z" fill="black"/>
<ellipse cx="20.5905" cy="20.163" rx="12.8918" ry="13.9305" fill="white"/>
<path d="M20.4694 0.977997C31.7777 0.977997 40.9445 9.94272 40.9445 20.9971C40.9445 32.0515 31.7777 41.022 20.4694 41.022C9.16099 41.022 0 32.0573 0 21.0029C0 9.9485 9.16099 0.977997 20.4694 0.977997ZM22.7322 29.7367L30.9003 12.6674H24.285L19.4014 22.3883L16.5729 16.5465H9.68052L16.0245 29.7367H22.7322V29.7367Z" fill="black"/>
</svg>
