<svg width="492" height="423" viewBox="0 0 492 423" fill="none" xmlns="http://www.w3.org/2000/svg">
<g clip-path="url(#clip0)">
<path d="M39.4987 116.867C61.3132 116.867 78.9973 99.1749 78.9973 77.3507C78.9973 55.5266 61.3132 37.8346 39.4987 37.8346C17.6842 37.8346 0 55.5266 0 77.3507C0 99.1749 17.6842 116.867 39.4987 116.867Z" fill="#DCBC94"/>
<path d="M458.252 331.578C458.072 338.304 456.946 344.972 454.907 351.384C454.86 351.533 454.811 351.679 454.762 351.828H442.278C442.291 351.695 442.304 351.546 442.318 351.384C443.15 341.809 447.949 283.537 442.211 273.572C442.713 274.38 459.22 301.156 458.252 331.578Z" fill="#E6E6E6"/>
<path d="M457.316 351.384C457.211 351.533 457.102 351.681 456.991 351.828H447.625C447.697 351.701 447.779 351.553 447.874 351.384C449.421 348.59 454.001 340.237 458.252 331.578C462.821 322.272 467.012 312.613 466.659 309.118C466.768 309.906 469.929 333.941 457.316 351.384Z" fill="#E6E6E6"/>
<path d="M492 350.976H132.994V352.151H492V350.976Z" fill="#E6E6E6"/>
<path d="M362.792 387.664L364.535 373.27L413.803 360.62L408.135 343.609C412.083 332.28 419.015 326.726 431.679 332.268L453.462 345.806C455.579 347.122 457.304 348.983 458.456 351.194C459.608 353.405 460.144 355.885 460.01 358.375C459.877 360.874 459.071 363.292 457.679 365.371C456.286 367.451 454.358 369.116 452.099 370.19C427.712 381.755 396.631 386.18 362.792 387.664Z" fill="#C59552"/>
<path d="M365.843 392.026L350.583 389.845L336.311 392.759C335.436 392.937 334.533 392.924 333.665 392.719C332.796 392.515 331.982 392.124 331.279 391.573C330.576 391.023 330.001 390.327 329.593 389.533C329.186 388.738 328.956 387.865 328.918 386.973C328.877 385.975 329.078 384.982 329.505 384.079C329.932 383.177 330.571 382.391 331.368 381.79L353.734 364.932C355.652 363.486 358.022 362.772 360.42 362.917C362.817 363.062 365.084 364.057 366.814 365.723L372.383 371.089C368.398 373.562 365.434 377.274 363.663 382.43C367.493 384.536 368.22 387.735 365.843 392.026Z" fill="#2F2E41"/>
<path d="M380.5 241C388.508 241 395 234.284 395 226C395 217.716 388.508 211 380.5 211C372.492 211 366 217.716 366 226C366 234.284 372.492 241 380.5 241Z" fill="#C59552"/>
<path d="M402.467 254.627L370.857 267.931C373.426 255.026 374.707 243.271 370.857 236.089L391.131 233.69C390.125 239.209 395.254 246.6 402.467 254.627Z" fill="#C59552"/>
<path d="M348.84 387.228L337.068 386.355C329.856 356.27 326.164 327.832 327.776 301.88C328.003 298.091 329.689 294.538 332.479 291.966C335.269 289.394 338.946 288.003 342.739 288.085C346.384 288.168 349.867 289.607 352.508 292.121L367.731 306.614C374.52 313.027 379.79 320.877 383.155 329.589C387.467 340.886 385.919 347.219 375.627 346.144C369.195 345.426 363.28 342.28 359.089 337.347L347.968 324.417L348.84 387.228Z" fill="#C59552"/>
<path d="M339.724 422.979C338.181 422.878 336.682 422.423 335.343 421.65C334.004 420.876 332.861 419.804 332.002 418.518C331.144 417.231 330.593 415.764 330.393 414.23C330.192 412.696 330.347 411.137 330.846 409.673L333.144 402.93L334.888 385.919C337.574 380.435 341.379 381.255 345.788 385.483C348.591 385.208 349.192 382.404 348.84 378.504L357.678 390.407C358.435 391.426 358.904 392.629 359.038 393.891C359.172 395.153 358.965 396.428 358.438 397.582L349.543 417.104C348.695 418.964 347.302 420.522 345.548 421.572C343.794 422.621 341.763 423.112 339.724 422.979Z" fill="#2F2E41"/>
<path d="M451.08 344.263C434.948 353.423 429.892 353.689 413.803 360.184L399.851 352.333C383.465 358.394 371.971 350.085 359.521 337.721C367.669 324.144 364.065 306.502 369.113 306.751L429.498 325.725L432.114 332.268L451.08 344.263Z" fill="#2F2E41"/>
<path d="M431.678 330.087C410.357 339.32 387.4 329.545 367.805 308.06L354.831 255.638C354.677 255.061 354.644 254.458 354.732 253.867C354.821 253.276 355.029 252.709 355.345 252.202C355.66 251.695 356.076 251.258 356.567 250.918C357.058 250.578 357.614 250.342 358.2 250.224L373.255 247.212L380.667 258.989L395.491 245.903L411.234 251.052C413.327 251.737 415.195 252.978 416.638 254.642C418.081 256.306 419.045 258.331 419.427 260.501L431.678 330.087Z" fill="#697A61"/>
<path opacity="0.2" d="M397.812 374.528C396.661 374.09 395.632 373.381 394.812 372.463C393.991 371.544 393.403 370.442 393.096 369.249C392.79 368.056 392.773 366.807 393.049 365.606C393.324 364.405 393.884 363.288 394.68 362.349L404.647 350.588L411.623 354.514L408.031 369.165C407.771 370.225 407.288 371.218 406.616 372.078C405.943 372.937 405.096 373.644 404.13 374.151C403.163 374.658 402.101 374.954 401.011 375.019C399.922 375.084 398.832 374.917 397.812 374.528Z" fill="black"/>
<path d="M397.812 372.783C396.661 372.345 395.632 371.637 394.812 370.718C393.991 369.8 393.403 368.697 393.096 367.504C392.79 366.311 392.773 365.062 393.049 363.861C393.324 362.661 393.884 361.544 394.68 360.604L404.647 348.843L411.623 352.769L408.031 367.42C407.771 368.48 407.288 369.473 406.616 370.333C405.943 371.192 405.096 371.899 404.13 372.406C403.163 372.914 402.101 373.209 401.011 373.274C399.922 373.339 398.832 373.172 397.812 372.783Z" fill="#C59552"/>
<path d="M413.367 356.258L402.903 349.28L418.163 308.714L412.495 251.574L417.665 254.807C420.44 256.542 422.834 258.823 424.701 261.511C426.568 264.199 427.87 267.239 428.527 270.446L436.91 311.331C433.242 330.177 427.128 346.758 413.367 356.258Z" fill="#697A61"/>
<path opacity="0.2" d="M407.045 291.485L412.277 317.656L407.974 332.962L407.045 291.485Z" fill="black"/>
<path d="M366.5 226C366.5 226 358.484 198.947 383.339 204.532C387.194 205.398 390.525 207.64 393.174 210.572C393.412 210.829 393.702 211.03 394.026 211.162C394.349 211.294 394.698 211.354 395.047 211.337C399.017 211.337 401.941 225.258 394 231.5C394 231.5 395.149 223.374 392.204 220.512C391.674 220.028 391.231 219.457 390.893 218.824C388.976 214.955 382.532 213.685 378.088 214.015C375.819 214.183 375.621 218.14 373.109 217.588C367.394 216.33 365.454 223.379 366.5 226Z" fill="#2F2E41"/>
<path d="M391.633 265.095L391.468 266.3L390.453 273.739L388.789 285.922L388.373 288.972C388.341 289.205 388.226 289.418 388.049 289.573C387.872 289.727 387.645 289.812 387.411 289.812H376.319C376.085 289.812 375.858 289.727 375.681 289.573C375.504 289.419 375.389 289.207 375.357 288.974L374.933 285.922L373.242 273.739L372.208 266.295L372.042 265.097C372.023 264.959 372.033 264.819 372.073 264.686C372.112 264.553 372.18 264.43 372.271 264.325C372.362 264.22 372.475 264.136 372.601 264.079C372.728 264.021 372.865 263.991 373.004 263.991H390.67C390.809 263.991 390.946 264.021 391.072 264.079C391.198 264.136 391.311 264.22 391.402 264.324C391.493 264.429 391.561 264.552 391.601 264.684C391.641 264.817 391.651 264.957 391.633 265.095Z" fill="#E6E6E6"/>
<path d="M374.175 260.764H389.558C389.685 260.764 389.811 260.789 389.929 260.838C390.047 260.887 390.154 260.958 390.244 261.048C390.335 261.139 390.406 261.246 390.455 261.364C390.504 261.482 390.529 261.608 390.529 261.736V263.02C390.529 263.277 390.427 263.524 390.244 263.707C390.062 263.889 389.815 263.991 389.558 263.991H374.175C373.917 263.991 373.67 263.889 373.488 263.707C373.305 263.524 373.203 263.277 373.203 263.02V261.736C373.203 261.608 373.228 261.482 373.277 261.364C373.326 261.246 373.397 261.139 373.488 261.048C373.578 260.958 373.685 260.887 373.803 260.838C373.921 260.789 374.047 260.764 374.175 260.764Z" fill="#9A7B68"/>
<path d="M393.023 265.605C385.607 266.415 378.125 266.415 370.709 265.605C370.582 265.605 370.455 265.58 370.337 265.531C370.22 265.482 370.112 265.411 370.022 265.321C369.932 265.23 369.861 265.123 369.812 265.005C369.763 264.887 369.738 264.761 369.738 264.633V263.349C369.738 263.222 369.763 263.095 369.812 262.978C369.861 262.86 369.932 262.753 370.022 262.662C370.112 262.572 370.22 262.5 370.337 262.452C370.455 262.403 370.582 262.378 370.709 262.378C378.119 263.289 385.613 263.289 393.023 262.378C393.28 262.378 393.527 262.48 393.709 262.662C393.892 262.845 393.994 263.092 393.994 263.349V264.633C393.994 264.891 393.892 265.138 393.709 265.321C393.527 265.503 393.28 265.605 393.023 265.605Z" fill="#9A7B68"/>
<path d="M381.416 280.519C383.732 280.519 385.609 278.641 385.609 276.325C385.609 274.008 383.732 272.13 381.416 272.13C379.1 272.13 377.223 274.008 377.223 276.325C377.223 278.641 379.1 280.519 381.416 280.519Z" fill="black"/>
<path d="M392.195 285.149C392.322 286.375 392.154 287.613 391.704 288.76C391.254 289.906 390.536 290.929 389.61 291.74C388.684 292.552 387.576 293.13 386.381 293.425C385.185 293.72 383.936 293.724 382.739 293.436L367.753 289.837L368.111 281.837L382.803 278.441C383.866 278.195 384.969 278.179 386.04 278.392C387.11 278.605 388.122 279.043 389.01 279.677C389.898 280.312 390.641 281.128 391.19 282.071C391.739 283.014 392.082 284.064 392.195 285.149Z" fill="#C59552"/>
<path d="M371.947 291.267L331.504 292.278C330.044 292.315 328.593 292.032 327.254 291.451C325.914 290.869 324.717 290.002 323.746 288.911C322.776 287.819 322.055 286.529 321.634 285.13C321.213 283.731 321.101 282.257 321.308 280.81C321.632 278.544 322.719 276.456 324.39 274.892L343.432 257.071C346.964 253.766 351.364 251.536 356.118 250.645L362.791 249.393L366.715 279.054L344.044 276.436L370.639 279.49L371.947 291.267Z" fill="#697A61"/>
<path d="M318.666 378.302H215.416C214.497 378.302 213.617 377.938 212.968 377.288C212.318 376.638 211.954 375.758 211.954 374.839C249.382 370.487 286.107 370.487 322.128 374.839C322.128 375.758 321.764 376.638 321.114 377.288C320.465 377.938 319.585 378.302 318.666 378.302Z" fill="#2F2E41"/>
<path d="M322.128 375.043L211.954 374.839L224.723 353.344L224.784 353.242V305.871C224.784 305.296 224.897 304.726 225.117 304.195C225.337 303.664 225.659 303.181 226.065 302.775C226.472 302.368 226.954 302.046 227.485 301.826C228.016 301.606 228.585 301.492 229.16 301.492H304.311C304.886 301.492 305.455 301.606 305.986 301.826C306.517 302.046 306.999 302.368 307.406 302.775C307.812 303.181 308.135 303.664 308.354 304.195C308.574 304.726 308.688 305.296 308.688 305.871V353.568L322.128 375.043Z" fill="#9A7B68"/>
<path d="M229.06 304.549C228.682 304.549 228.32 304.699 228.053 304.967C227.786 305.234 227.635 305.597 227.635 305.975V349.168C227.635 349.546 227.786 349.908 228.053 350.176C228.32 350.443 228.682 350.593 229.06 350.594H305.022C305.4 350.593 305.762 350.443 306.029 350.176C306.297 349.908 306.447 349.546 306.447 349.168V305.975C306.447 305.597 306.297 305.234 306.029 304.967C305.762 304.699 305.4 304.549 305.022 304.549L229.06 304.549Z" fill="white"/>
<path d="M229.559 356.299C229.442 356.299 229.328 356.332 229.23 356.395C229.131 356.458 229.053 356.548 229.004 356.654L225.07 365.211C225.027 365.305 225.008 365.407 225.015 365.509C225.022 365.611 225.055 365.71 225.11 365.797C225.165 365.883 225.242 365.954 225.331 366.003C225.421 366.052 225.522 366.078 225.625 366.078H308.365C308.469 366.078 308.571 366.051 308.662 366.001C308.753 365.95 308.83 365.877 308.884 365.788C308.939 365.7 308.97 365.598 308.975 365.494C308.98 365.39 308.958 365.287 308.911 365.194L304.634 356.636C304.584 356.535 304.506 356.449 304.41 356.389C304.313 356.33 304.202 356.298 304.088 356.299L229.559 356.299Z" fill="#2F2E41"/>
<path d="M266.735 303.835C267.241 303.835 267.652 303.425 267.652 302.919C267.652 302.412 267.241 302.002 266.735 302.002C266.229 302.002 265.819 302.412 265.819 302.919C265.819 303.425 266.229 303.835 266.735 303.835Z" fill="black"/>
<path d="M258.603 367.708C258.468 367.708 258.338 367.753 258.231 367.834C258.125 367.916 258.048 368.031 258.013 368.16L257.026 371.828C257.002 371.918 256.998 372.013 257.016 372.105C257.035 372.197 257.074 372.284 257.131 372.358C257.188 372.433 257.261 372.493 257.345 372.535C257.43 372.576 257.522 372.598 257.616 372.598H276.385C276.482 372.598 276.578 372.575 276.665 372.53C276.752 372.485 276.826 372.42 276.883 372.341C276.939 372.262 276.976 372.17 276.99 372.074C277.003 371.977 276.994 371.879 276.962 371.787L275.693 368.119C275.652 367.999 275.574 367.895 275.47 367.821C275.367 367.748 275.243 367.708 275.116 367.708H258.603Z" fill="#2F2E41"/>
<path d="M308.688 352.529V353.345H224.723L224.786 353.242V352.529H308.688Z" fill="#2F2E41"/>
<path d="M189.147 325.348C189.378 333.97 190.821 342.516 193.435 350.734C193.495 350.925 193.557 351.113 193.62 351.303H209.622C209.605 351.133 209.588 350.942 209.571 350.734C208.504 338.463 202.352 263.774 209.707 251.002C209.064 252.038 187.907 286.356 189.147 325.348Z" fill="#E6E6E6"/>
<path d="M190.348 350.734C190.482 350.925 190.621 351.116 190.763 351.304H202.768C202.677 351.141 202.571 350.951 202.449 350.734C200.466 347.153 194.596 336.447 189.147 325.349C183.291 313.421 177.919 301.042 178.372 296.561C178.232 297.572 174.181 328.377 190.348 350.734Z" fill="#E6E6E6"/>
<path d="M217.423 91.8406L223.929 86.6348C218.875 86.077 216.798 88.8346 215.948 91.0173C212 89.377 207.701 91.5267 207.701 91.5267L220.718 96.2544C220.062 94.4996 218.918 92.9685 217.423 91.8406Z" fill="#9A7B68"/>
<path d="M413.374 65.0447L419.88 59.839C414.826 59.2811 412.749 62.0387 411.899 64.2214C407.951 62.5811 403.652 64.7308 403.652 64.7308L416.669 69.4585C416.013 67.7037 414.87 66.1726 413.374 65.0447Z" fill="#9A7B68"/>
<path d="M375.911 134.127L382.417 128.922C377.363 128.364 375.286 131.122 374.436 133.304C370.488 131.664 366.189 133.814 366.189 133.814L379.206 138.541C378.55 136.787 377.407 135.255 375.911 134.127Z" fill="#9A7B68"/>
<path d="M120.527 236.481C152.454 230.722 168.815 173.22 157.069 108.047C145.324 42.8731 109.92 -5.2919 77.9928 0.467066C46.0654 6.22603 29.7047 63.7282 41.4501 128.902C53.1956 194.075 88.5994 242.24 120.527 236.481Z" fill="#E6E6E6"/>
<path d="M89.6392 96.0302C94.806 110.086 99.4038 124.333 103.433 138.772C107.454 153.197 110.894 167.768 113.752 182.485C116.61 197.196 118.876 212.007 120.55 226.915C122.215 241.798 123.286 256.731 123.76 271.716C124.232 286.684 124.102 301.655 123.369 316.628C123.279 318.463 123.18 320.297 123.071 322.13C122.961 324.008 125.882 324.002 125.992 322.13C126.874 307.109 127.151 292.07 126.822 277.012C126.492 262.039 125.562 247.097 124.034 232.183C122.503 217.226 120.381 202.345 117.669 187.539C114.955 172.739 111.651 158.065 107.757 143.515C103.865 128.981 99.39 114.621 94.3321 100.434C93.715 98.7039 93.0893 96.9771 92.4549 95.2535C91.8117 93.5037 88.9885 94.26 89.6392 96.0301V96.0302Z" fill="#9A7B68"/>
<path d="M109.76 151.323L122.697 122.585L126.344 114.485C126.528 114.148 126.576 113.753 126.478 113.382C126.381 113.01 126.145 112.69 125.82 112.487C125.485 112.294 125.087 112.241 124.714 112.339C124.34 112.437 124.02 112.679 123.822 113.011L110.885 141.749L107.239 149.849C107.055 150.186 107.007 150.58 107.104 150.952C107.201 151.324 107.437 151.644 107.763 151.847C108.098 152.04 108.495 152.093 108.869 151.995C109.242 151.897 109.563 151.655 109.76 151.323H109.76Z" fill="#9A7B68"/>
<path d="M112.619 170.959L83.1199 159.894L74.8056 156.776C74.4323 156.676 74.0348 156.727 73.6988 156.918C73.3628 157.109 73.1152 157.424 73.0096 157.796C72.915 158.169 72.9684 158.564 73.1584 158.899C73.3484 159.234 73.6605 159.483 74.0293 159.593L103.528 170.658L111.843 173.776C112.216 173.876 112.613 173.825 112.949 173.634C113.285 173.443 113.533 173.128 113.639 172.756C113.733 172.383 113.68 171.987 113.49 171.653C113.3 171.318 112.988 171.069 112.619 170.959V170.959Z" fill="#9A7B68"/>
<path d="M89.6475 327.704C89.6475 327.704 125.175 316.019 158.27 327.704H89.6475Z" fill="#E6E6E6"/>
<path d="M248.619 322.168C255.659 322.095 262.699 321.969 269.738 321.873C272.085 321.841 274.432 321.813 276.779 321.789C278.802 321.768 278.807 318.622 276.779 318.643C269.739 318.716 262.7 318.842 255.66 318.938C253.313 318.97 250.966 318.998 248.619 319.022C246.597 319.043 246.592 322.189 248.619 322.168Z" fill="#697A61"/>
<path d="M248.619 329.508L277.073 329.214L285.165 329.13C287.187 329.109 287.192 325.963 285.165 325.984L256.711 326.279L248.619 326.362C246.597 326.383 246.592 329.529 248.619 329.508Z" fill="#697A61"/>
<path d="M248.619 336.849L277.073 336.554L285.165 336.47C287.187 336.449 287.192 333.303 285.165 333.324L256.711 333.619L248.619 333.703C246.597 333.724 246.592 336.87 248.619 336.849Z" fill="#697A61"/>
</g>
<defs>
<clipPath id="clip0">
<rect width="492" height="423" fill="white"/>
</clipPath>
</defs>
</svg>
