<svg width="442" height="272" viewBox="0 0 442 272" fill="none" xmlns="http://www.w3.org/2000/svg">
<g clip-path="url(#clip0)">
<path d="M442 232.207H285.876C291.108 205.441 290.623 177.112 285.876 147.618H442C438.036 177.623 437.913 205.876 442 232.207Z" fill="#DCBC94"/>
<path d="M423.54 175.109H345.478V177.224H423.54V175.109Z" fill="#3F3D56"/>
<path d="M423.54 181.982H345.478V184.097H423.54V181.982Z" fill="#3F3D56"/>
<path d="M423.54 188.855H345.478V190.97H423.54V188.855Z" fill="#3F3D56"/>
<path d="M423.54 195.728H345.478V197.842H423.54V195.728Z" fill="#3F3D56"/>
<path d="M423.54 202.601H345.478V204.715H423.54V202.601Z" fill="#3F3D56"/>
<path d="M330.181 176.959H304.336V202.865H330.181V176.959Z" fill="#3F3D56"/>
<path d="M229.386 147.39H229.386C237.121 147.39 244.539 150.47 250.009 155.952C255.479 161.435 258.551 168.87 258.551 176.624V232.239H144.736V232.239C144.736 221.096 146.925 210.063 151.179 199.768C155.434 189.474 161.669 180.121 169.529 172.242C177.39 164.363 186.722 158.113 196.992 153.849C207.262 149.585 218.27 147.39 229.386 147.39Z" fill="#3F3D56"/>
<path d="M24.9702 222.735C24.4319 222.746 23.9113 222.929 23.4847 223.259C22.2186 219.905 20.2586 217.75 18.0566 217.75C15.8546 217.75 13.8946 219.905 12.6284 223.259C12.2018 222.929 11.6812 222.746 11.1429 222.735C8.64127 222.735 6.61328 226.976 6.61328 232.207H29.4998C29.4998 226.976 27.4719 222.735 24.9702 222.735Z" fill="#9A7B68"/>
<path d="M99.8195 232.643H56.0415C57.4425 216.107 57.4425 199.482 56.0415 182.947H99.8195C97.4092 199.967 97.2682 216.559 99.8195 232.643Z" fill="#DCBC94"/>
<path d="M94.0174 192.992H62.3706V195.106H94.0174V192.992Z" fill="#3F3D56"/>
<path d="M94.0174 199.865H62.3706V201.979H94.0174V199.865Z" fill="#3F3D56"/>
<path d="M94.0174 206.737H62.3706V208.852H94.0174V206.737Z" fill="#3F3D56"/>
<path d="M94.0174 213.61H62.3706V215.725H94.0174V213.61Z" fill="#3F3D56"/>
<path d="M94.0174 220.483H62.3706V222.598H94.0174V220.483Z" fill="#3F3D56"/>
<path d="M386.618 231.678H0V232.735H386.618V231.678Z" fill="#3F3D56"/>
<path d="M153.296 226.25L156.992 246.005L173.005 233.658L163.459 222.238L153.296 226.25Z" fill="#C59552"/>
<path d="M248.759 228.102L245.063 247.856L229.05 235.51L236.749 223.472L248.759 228.102Z" fill="#C59552"/>
<path d="M187.786 116.366L178.548 126.243C178.548 126.243 129.893 147.85 129.893 158.962C129.893 170.073 141.595 218.225 146.522 221.929C149.49 224.172 151.824 227.15 153.297 230.571L166.846 223.781C166.846 223.781 165.614 220.077 166.846 218.225C168.078 216.373 166.846 215.138 166.846 215.138C166.846 215.138 164.998 215.756 165.614 213.904C166.23 212.052 166.23 211.434 165.614 210.817C164.998 210.2 163.151 204.644 163.151 204.644C163.151 204.644 163.767 182.42 155.144 174.395C155.144 174.395 195.177 162.666 200.104 154.64C205.031 146.615 206.263 117.601 206.263 117.601L187.786 116.366Z" fill="#2F2E41"/>
<path d="M159.455 238.597C159.455 238.597 158.223 231.806 150.833 233.658V241.683L144.058 255.264C144.058 255.264 129.893 271.315 142.826 270.08C155.76 268.846 163.15 260.82 163.15 257.116C163.15 253.412 172.389 247.856 172.389 247.856C172.389 247.856 182.243 237.362 177.932 233.658C173.62 229.954 169.408 223.673 169.359 226.814C169.309 229.954 159.455 238.597 159.455 238.597Z" fill="#2F2E41"/>
<path d="M214.269 112.045L223.507 128.095C223.507 128.095 272.162 149.702 272.162 160.814C272.162 171.925 260.46 220.077 255.533 223.781C252.565 226.024 250.231 229.002 248.758 232.423L235.209 225.633C235.209 225.633 236.441 221.929 235.209 220.077C233.977 218.225 235.209 216.99 235.209 216.99C235.209 216.99 237.057 217.607 236.441 215.756C235.825 213.904 235.825 213.286 236.441 212.669C237.057 212.052 238.904 206.496 238.904 206.496C238.904 206.496 238.288 184.272 246.911 176.247C246.911 176.247 203.183 160.813 198.256 152.788C191.946 142.51 196.56 100.305 195.176 114.514L214.269 112.045Z" fill="#2F2E41"/>
<path d="M242.6 240.449C242.6 240.449 243.832 233.658 251.222 235.51V243.535L257.997 257.116C257.997 257.116 272.162 273.167 259.229 271.932C246.295 270.698 238.905 262.672 238.905 258.968C238.905 255.264 229.666 249.708 229.666 249.708C229.666 249.708 219.812 239.214 224.123 235.51C228.435 231.806 232.647 225.525 232.696 228.666C232.746 231.806 242.6 240.449 242.6 240.449Z" fill="#2F2E41"/>
<path d="M217.348 38.5829C226.192 38.5829 233.361 31.3969 233.361 22.5324C233.361 13.668 226.192 6.48193 217.348 6.48193C208.505 6.48193 201.335 13.668 201.335 22.5324C201.335 31.3969 208.505 38.5829 217.348 38.5829Z" fill="#C59552"/>
<path d="M206.263 29.9403C206.263 29.9403 205.647 42.9042 197.64 46.6081C189.634 50.3121 210.574 63.2759 210.574 63.2759L225.971 55.2507C225.971 55.2507 222.276 37.3482 225.355 33.6443C228.435 29.9403 206.263 29.9403 206.263 29.9403Z" fill="#C59552"/>
<path d="M228.434 46.6081C228.434 46.6081 206.979 61.2735 200.462 44.6809C200.462 44.6809 184.707 50.9294 185.323 55.2507C185.938 59.572 184.091 118.835 184.091 118.835C184.091 118.835 209.958 126.243 217.349 118.835C224.739 111.427 228.434 46.6081 228.434 46.6081Z" fill="#DCBC94"/>
<path d="M224.153 41.0923L226.587 43.5215C226.587 43.5215 252.454 54.6334 251.838 60.8067C251.222 66.9799 239.521 95.9943 239.521 95.9943C239.521 95.9943 233.362 118.218 234.594 124.391C235.825 130.565 237.673 132.417 236.441 134.269C235.209 136.12 236.441 139.824 236.441 141.059C236.441 142.294 229.051 147.232 229.051 147.232C229.051 147.232 217.349 136.738 213.038 134.886C208.726 133.034 205.647 118.835 208.726 106.489C211.806 94.1423 212.422 67.5973 212.422 67.5973L221.044 54.6334C221.044 54.6334 221.104 45.4536 224.153 41.0923Z" fill="#697A61"/>
<path d="M204.357 38.5829C204.357 38.5829 199.488 37.9656 198.256 41.0522C197.025 44.1389 176.085 50.9295 176.085 53.3988C176.085 55.8681 182.243 86.7344 182.243 86.7344L183.475 104.637L172.389 112.662C172.389 112.662 174.853 120.687 171.773 123.774C168.694 126.861 164.999 134.886 168.694 136.12C172.389 137.355 195.177 128.713 195.793 119.453C196.409 110.193 193.945 103.402 198.256 96.6116C202.568 89.821 203.183 63.276 203.183 63.276L204.357 38.5829Z" fill="#697A61"/>
<path d="M232.304 8.68421C229.91 4.78772 226.163 1.91643 221.784 0.62297L218.567 3.20212L219.818 0.193834C218.766 0.033034 217.702 -0.0286281 216.639 0.00966614L213.745 3.73921L214.943 0.137416C212.432 0.450215 210.012 1.28115 207.837 2.57783C205.663 3.87451 203.779 5.60881 202.307 7.67135C198.623 12.9948 198.002 20.3979 201.624 25.763C202.619 22.6997 203.826 19.8254 204.82 16.7621C205.602 16.8689 206.394 16.8727 207.177 16.7736L208.387 13.9438L208.725 16.6539C212.475 16.3264 218.037 15.6074 221.592 14.9487L221.247 12.8697L223.315 14.5973C224.404 14.346 225.051 14.1181 224.997 13.9439C227.642 18.2165 230.877 20.9455 233.521 25.218C234.525 19.1914 235.681 14.1819 232.304 8.68421Z" fill="#2F2E41"/>
<path d="M232.13 25.3104C232.844 25.3104 233.423 24.3431 233.423 23.1498C233.423 21.9565 232.844 20.9891 232.13 20.9891C231.415 20.9891 230.836 21.9565 230.836 23.1498C230.836 24.3431 231.415 25.3104 232.13 25.3104Z" fill="#C59552"/>
<path d="M225.519 133.253H197.687C196.986 133.253 196.314 132.974 195.819 132.477C195.324 131.981 195.045 131.308 195.045 130.605L193.819 94.103C193.819 93.7553 193.887 93.4111 194.02 93.0899C194.153 92.7687 194.347 92.4768 194.592 92.231C194.838 91.9851 195.129 91.7901 195.449 91.6571C195.77 91.524 196.113 91.4556 196.46 91.4556H226.745C227.092 91.4556 227.435 91.524 227.756 91.6571C228.076 91.7901 228.367 91.9851 228.613 92.231C228.858 92.4768 229.052 92.7687 229.185 93.0899C229.318 93.4111 229.386 93.7553 229.386 94.103L228.16 130.605C228.16 131.308 227.882 131.981 227.386 132.477C226.891 132.974 226.219 133.253 225.519 133.253Z" fill="#3F3D56"/>
<path d="M211.603 104.978C212.958 104.978 214.056 103.878 214.056 102.52C214.056 101.162 212.958 100.061 211.603 100.061C210.248 100.061 209.15 101.162 209.15 102.52C209.15 103.878 210.248 104.978 211.603 104.978Z" fill="#DCBC94"/>
<path d="M236.604 116.286C236.604 116.286 212.019 124.734 218.097 130.113C224.174 135.493 240.367 122.208 240.367 122.208L236.604 116.286Z" fill="#C59552"/>
<path d="M241.984 57.1027C241.984 57.1027 251.222 55.2507 253.685 63.276C256.149 71.3012 268.467 100.933 264.771 105.254C261.076 109.575 247.527 121.305 243.215 123.774C238.904 126.243 237.057 126.243 237.057 126.243L231.514 128.713L229.666 114.514L235.987 110.761L245.679 102.785L240.136 86.1171L241.984 57.1027Z" fill="#697A61"/>
<path d="M187.008 111.965C187.008 111.965 211.593 120.413 205.515 125.792C199.437 131.171 183.245 117.887 183.245 117.887L187.008 111.965Z" fill="#C59552"/>
<path d="M181.627 52.7814C181.627 52.7814 172.389 50.9294 169.925 58.9546C167.462 66.9799 155.144 96.6115 158.84 100.933C162.535 105.254 176.084 116.983 180.395 119.453C184.707 121.922 186.554 121.922 186.554 121.922L192.097 124.391L193.945 110.193L187.624 106.439L177.932 98.4635L186.862 76.5484L181.627 52.7814Z" fill="#697A61"/>
<path d="M90.1201 220.342L110.909 213.814C109.759 205.148 107.132 196.744 103.144 188.969L82.355 195.497C87.2334 202.877 89.9258 211.491 90.1201 220.342Z" fill="#9A7B68"/>
<path d="M297.64 222H319.426C320.912 213.386 320.912 204.579 319.426 195.964H297.64C300.094 204.469 300.094 213.496 297.64 222Z" fill="#9A7B68"/>
<path d="M397.855 226.758H419.64C421.127 218.144 421.127 209.337 419.64 200.722H397.855C400.309 209.227 400.309 218.254 397.855 226.758Z" fill="#9A7B68"/>
</g>
<defs>
<clipPath id="clip0">
<rect width="442" height="272" fill="white"/>
</clipPath>
</defs>
</svg>
